<?xml version="1.0" encoding="utf-8" standalone="no"?>
<!DOCTYPE svg PUBLIC "-//W3C//DTD SVG 1.1//EN"
  "http://www.w3.org/Graphics/SVG/1.1/DTD/svg11.dtd">
<svg xmlns:xlink="http://www.w3.org/1999/xlink" width="788.740247pt" height="384.080698pt" viewBox="0 0 788.740247 384.080698" xmlns="http://www.w3.org/2000/svg" version="1.1">
 <metadata>
  <rdf:RDF xmlns:dc="http://purl.org/dc/elements/1.1/" xmlns:cc="http://creativecommons.org/ns#" xmlns:rdf="http://www.w3.org/1999/02/22-rdf-syntax-ns#">
   <cc:Work>
    <dc:type rdf:resource="http://purl.org/dc/dcmitype/StillImage"/>
    <dc:date>2024-01-04T16:36:32.352065</dc:date>
    <dc:format>image/svg+xml</dc:format>
    <dc:creator>
     <cc:Agent>
      <dc:title>Matplotlib v3.8.2, https://matplotlib.org/</dc:title>
     </cc:Agent>
    </dc:creator>
   </cc:Work>
  </rdf:RDF>
 </metadata>
 <defs>
  <style type="text/css">*{stroke-linejoin: round; stroke-linecap: butt}</style>
 </defs>
 <g id="figure_1">
  <g id="patch_1">
   <path d="M 0 384.080698 
L 788.740247 384.080698 
L 788.740247 0 
L 0 0 
z
" style="fill: #ffffff"/>
  </g>
  <g id="axes_1">
   <g id="patch_2">
    <path d="M 41.245313 313.677812 
L 366.549217 313.677812 
L 366.549217 20.357812 
L 41.245313 20.357812 
z
" style="fill: #eaeaf2"/>
   </g>
   <g id="matplotlib.axis_1">
    <g id="xtick_1">
     <g id="text_1">
      <!-- BPI17 -->
      <g style="fill: #262626" transform="translate(34.732928 340.496972) rotate(-30) scale(0.1 -0.1)">
       <defs>
        <path id="ArialMT-42" d="M 469 0 
L 469 4581 
L 2188 4581 
Q 2713 4581 3030 4442 
Q 3347 4303 3526 4014 
Q 3706 3725 3706 3409 
Q 3706 3116 3547 2856 
Q 3388 2597 3066 2438 
Q 3481 2316 3704 2022 
Q 3928 1728 3928 1328 
Q 3928 1006 3792 729 
Q 3656 453 3456 303 
Q 3256 153 2954 76 
Q 2653 0 2216 0 
L 469 0 
z
M 1075 2656 
L 2066 2656 
Q 2469 2656 2644 2709 
Q 2875 2778 2992 2937 
Q 3109 3097 3109 3338 
Q 3109 3566 3000 3739 
Q 2891 3913 2687 3977 
Q 2484 4041 1991 4041 
L 1075 4041 
L 1075 2656 
z
M 1075 541 
L 2216 541 
Q 2509 541 2628 563 
Q 2838 600 2978 687 
Q 3119 775 3209 942 
Q 3300 1109 3300 1328 
Q 3300 1584 3169 1773 
Q 3038 1963 2805 2039 
Q 2572 2116 2134 2116 
L 1075 2116 
L 1075 541 
z
" transform="scale(0.015625)"/>
        <path id="ArialMT-50" d="M 494 0 
L 494 4581 
L 2222 4581 
Q 2678 4581 2919 4538 
Q 3256 4481 3484 4323 
Q 3713 4166 3852 3881 
Q 3991 3597 3991 3256 
Q 3991 2672 3619 2267 
Q 3247 1863 2275 1863 
L 1100 1863 
L 1100 0 
L 494 0 
z
M 1100 2403 
L 2284 2403 
Q 2872 2403 3119 2622 
Q 3366 2841 3366 3238 
Q 3366 3525 3220 3729 
Q 3075 3934 2838 4000 
Q 2684 4041 2272 4041 
L 1100 4041 
L 1100 2403 
z
" transform="scale(0.015625)"/>
        <path id="ArialMT-49" d="M 597 0 
L 597 4581 
L 1203 4581 
L 1203 0 
L 597 0 
z
" transform="scale(0.015625)"/>
        <path id="ArialMT-31" d="M 2384 0 
L 1822 0 
L 1822 3584 
Q 1619 3391 1289 3197 
Q 959 3003 697 2906 
L 697 3450 
Q 1169 3672 1522 3987 
Q 1875 4303 2022 4600 
L 2384 4600 
L 2384 0 
z
" transform="scale(0.015625)"/>
        <path id="ArialMT-37" d="M 303 3981 
L 303 4522 
L 3269 4522 
L 3269 4084 
Q 2831 3619 2401 2847 
Q 1972 2075 1738 1259 
Q 1569 684 1522 0 
L 944 0 
Q 953 541 1156 1306 
Q 1359 2072 1739 2783 
Q 2119 3494 2547 3981 
L 303 3981 
z
" transform="scale(0.015625)"/>
       </defs>
       <use xlink:href="#ArialMT-42"/>
       <use xlink:href="#ArialMT-50" x="66.699219"/>
       <use xlink:href="#ArialMT-49" x="133.398438"/>
       <use xlink:href="#ArialMT-31" x="161.181641"/>
       <use xlink:href="#ArialMT-37" x="216.796875"/>
      </g>
     </g>
    </g>
    <g id="xtick_2">
     <g id="text_2">
      <!-- BPI15 -->
      <g style="fill: #262626" transform="translate(70.877807 340.496972) rotate(-30) scale(0.1 -0.1)">
       <defs>
        <path id="ArialMT-35" d="M 266 1200 
L 856 1250 
Q 922 819 1161 601 
Q 1400 384 1738 384 
Q 2144 384 2425 690 
Q 2706 997 2706 1503 
Q 2706 1984 2436 2262 
Q 2166 2541 1728 2541 
Q 1456 2541 1237 2417 
Q 1019 2294 894 2097 
L 366 2166 
L 809 4519 
L 3088 4519 
L 3088 3981 
L 1259 3981 
L 1013 2750 
Q 1425 3038 1878 3038 
Q 2478 3038 2890 2622 
Q 3303 2206 3303 1553 
Q 3303 931 2941 478 
Q 2500 -78 1738 -78 
Q 1113 -78 717 272 
Q 322 622 266 1200 
z
" transform="scale(0.015625)"/>
       </defs>
       <use xlink:href="#ArialMT-42"/>
       <use xlink:href="#ArialMT-50" x="66.699219"/>
       <use xlink:href="#ArialMT-49" x="133.398438"/>
       <use xlink:href="#ArialMT-31" x="161.181641"/>
       <use xlink:href="#ArialMT-35" x="216.796875"/>
      </g>
     </g>
    </g>
    <g id="xtick_3">
     <g id="text_3">
      <!-- BPI12 -->
      <g style="fill: #262626" transform="translate(107.022685 340.496972) rotate(-30) scale(0.1 -0.1)">
       <defs>
        <path id="ArialMT-32" d="M 3222 541 
L 3222 0 
L 194 0 
Q 188 203 259 391 
Q 375 700 629 1000 
Q 884 1300 1366 1694 
Q 2113 2306 2375 2664 
Q 2638 3022 2638 3341 
Q 2638 3675 2398 3904 
Q 2159 4134 1775 4134 
Q 1369 4134 1125 3890 
Q 881 3647 878 3216 
L 300 3275 
Q 359 3922 746 4261 
Q 1134 4600 1788 4600 
Q 2447 4600 2831 4234 
Q 3216 3869 3216 3328 
Q 3216 3053 3103 2787 
Q 2991 2522 2730 2228 
Q 2469 1934 1863 1422 
Q 1356 997 1212 845 
Q 1069 694 975 541 
L 3222 541 
z
" transform="scale(0.015625)"/>
       </defs>
       <use xlink:href="#ArialMT-42"/>
       <use xlink:href="#ArialMT-50" x="66.699219"/>
       <use xlink:href="#ArialMT-49" x="133.398438"/>
       <use xlink:href="#ArialMT-31" x="161.181641"/>
       <use xlink:href="#ArialMT-32" x="216.796875"/>
      </g>
     </g>
    </g>
    <g id="xtick_4">
     <g id="text_4">
      <!-- BPI13 Closed -->
      <g style="fill: #262626" transform="translate(113.805243 357.449316) rotate(-30) scale(0.1 -0.1)">
       <defs>
        <path id="ArialMT-33" d="M 269 1209 
L 831 1284 
Q 928 806 1161 595 
Q 1394 384 1728 384 
Q 2125 384 2398 659 
Q 2672 934 2672 1341 
Q 2672 1728 2419 1979 
Q 2166 2231 1775 2231 
Q 1616 2231 1378 2169 
L 1441 2663 
Q 1497 2656 1531 2656 
Q 1891 2656 2178 2843 
Q 2466 3031 2466 3422 
Q 2466 3731 2256 3934 
Q 2047 4138 1716 4138 
Q 1388 4138 1169 3931 
Q 950 3725 888 3313 
L 325 3413 
Q 428 3978 793 4289 
Q 1159 4600 1703 4600 
Q 2078 4600 2393 4439 
Q 2709 4278 2876 4000 
Q 3044 3722 3044 3409 
Q 3044 3113 2884 2869 
Q 2725 2625 2413 2481 
Q 2819 2388 3044 2092 
Q 3269 1797 3269 1353 
Q 3269 753 2831 336 
Q 2394 -81 1725 -81 
Q 1122 -81 723 278 
Q 325 638 269 1209 
z
" transform="scale(0.015625)"/>
        <path id="ArialMT-20" transform="scale(0.015625)"/>
        <path id="ArialMT-43" d="M 3763 1606 
L 4369 1453 
Q 4178 706 3683 314 
Q 3188 -78 2472 -78 
Q 1731 -78 1267 223 
Q 803 525 561 1097 
Q 319 1669 319 2325 
Q 319 3041 592 3573 
Q 866 4106 1370 4382 
Q 1875 4659 2481 4659 
Q 3169 4659 3637 4309 
Q 4106 3959 4291 3325 
L 3694 3184 
Q 3534 3684 3231 3912 
Q 2928 4141 2469 4141 
Q 1941 4141 1586 3887 
Q 1231 3634 1087 3207 
Q 944 2781 944 2328 
Q 944 1744 1114 1308 
Q 1284 872 1643 656 
Q 2003 441 2422 441 
Q 2931 441 3284 734 
Q 3638 1028 3763 1606 
z
" transform="scale(0.015625)"/>
        <path id="ArialMT-6c" d="M 409 0 
L 409 4581 
L 972 4581 
L 972 0 
L 409 0 
z
" transform="scale(0.015625)"/>
        <path id="ArialMT-6f" d="M 213 1659 
Q 213 2581 725 3025 
Q 1153 3394 1769 3394 
Q 2453 3394 2887 2945 
Q 3322 2497 3322 1706 
Q 3322 1066 3130 698 
Q 2938 331 2570 128 
Q 2203 -75 1769 -75 
Q 1072 -75 642 372 
Q 213 819 213 1659 
z
M 791 1659 
Q 791 1022 1069 705 
Q 1347 388 1769 388 
Q 2188 388 2466 706 
Q 2744 1025 2744 1678 
Q 2744 2294 2464 2611 
Q 2184 2928 1769 2928 
Q 1347 2928 1069 2612 
Q 791 2297 791 1659 
z
" transform="scale(0.015625)"/>
        <path id="ArialMT-73" d="M 197 991 
L 753 1078 
Q 800 744 1014 566 
Q 1228 388 1613 388 
Q 2000 388 2187 545 
Q 2375 703 2375 916 
Q 2375 1106 2209 1216 
Q 2094 1291 1634 1406 
Q 1016 1563 777 1677 
Q 538 1791 414 1992 
Q 291 2194 291 2438 
Q 291 2659 392 2848 
Q 494 3038 669 3163 
Q 800 3259 1026 3326 
Q 1253 3394 1513 3394 
Q 1903 3394 2198 3281 
Q 2494 3169 2634 2976 
Q 2775 2784 2828 2463 
L 2278 2388 
Q 2241 2644 2061 2787 
Q 1881 2931 1553 2931 
Q 1166 2931 1000 2803 
Q 834 2675 834 2503 
Q 834 2394 903 2306 
Q 972 2216 1119 2156 
Q 1203 2125 1616 2013 
Q 2213 1853 2448 1751 
Q 2684 1650 2818 1456 
Q 2953 1263 2953 975 
Q 2953 694 2789 445 
Q 2625 197 2315 61 
Q 2006 -75 1616 -75 
Q 969 -75 630 194 
Q 291 463 197 991 
z
" transform="scale(0.015625)"/>
        <path id="ArialMT-65" d="M 2694 1069 
L 3275 997 
Q 3138 488 2766 206 
Q 2394 -75 1816 -75 
Q 1088 -75 661 373 
Q 234 822 234 1631 
Q 234 2469 665 2931 
Q 1097 3394 1784 3394 
Q 2450 3394 2872 2941 
Q 3294 2488 3294 1666 
Q 3294 1616 3291 1516 
L 816 1516 
Q 847 969 1125 678 
Q 1403 388 1819 388 
Q 2128 388 2347 550 
Q 2566 713 2694 1069 
z
M 847 1978 
L 2700 1978 
Q 2663 2397 2488 2606 
Q 2219 2931 1791 2931 
Q 1403 2931 1139 2672 
Q 875 2413 847 1978 
z
" transform="scale(0.015625)"/>
        <path id="ArialMT-64" d="M 2575 0 
L 2575 419 
Q 2259 -75 1647 -75 
Q 1250 -75 917 144 
Q 584 363 401 755 
Q 219 1147 219 1656 
Q 219 2153 384 2558 
Q 550 2963 881 3178 
Q 1213 3394 1622 3394 
Q 1922 3394 2156 3267 
Q 2391 3141 2538 2938 
L 2538 4581 
L 3097 4581 
L 3097 0 
L 2575 0 
z
M 797 1656 
Q 797 1019 1065 703 
Q 1334 388 1700 388 
Q 2069 388 2326 689 
Q 2584 991 2584 1609 
Q 2584 2291 2321 2609 
Q 2059 2928 1675 2928 
Q 1300 2928 1048 2622 
Q 797 2316 797 1656 
z
" transform="scale(0.015625)"/>
       </defs>
       <use xlink:href="#ArialMT-42"/>
       <use xlink:href="#ArialMT-50" x="66.699219"/>
       <use xlink:href="#ArialMT-49" x="133.398438"/>
       <use xlink:href="#ArialMT-31" x="161.181641"/>
       <use xlink:href="#ArialMT-33" x="216.796875"/>
       <use xlink:href="#ArialMT-20" x="272.412109"/>
       <use xlink:href="#ArialMT-43" x="300.195312"/>
       <use xlink:href="#ArialMT-6c" x="372.412109"/>
       <use xlink:href="#ArialMT-6f" x="394.628906"/>
       <use xlink:href="#ArialMT-73" x="450.244141"/>
       <use xlink:href="#ArialMT-65" x="500.244141"/>
       <use xlink:href="#ArialMT-64" x="555.859375"/>
      </g>
     </g>
    </g>
    <g id="xtick_5">
     <g id="text_5">
      <!-- BPI13 Incidents -->
      <g style="fill: #262626" transform="translate(142.246554 361.896972) rotate(-30) scale(0.1 -0.1)">
       <defs>
        <path id="ArialMT-6e" d="M 422 0 
L 422 3319 
L 928 3319 
L 928 2847 
Q 1294 3394 1984 3394 
Q 2284 3394 2536 3286 
Q 2788 3178 2913 3003 
Q 3038 2828 3088 2588 
Q 3119 2431 3119 2041 
L 3119 0 
L 2556 0 
L 2556 2019 
Q 2556 2363 2490 2533 
Q 2425 2703 2258 2804 
Q 2091 2906 1866 2906 
Q 1506 2906 1245 2678 
Q 984 2450 984 1813 
L 984 0 
L 422 0 
z
" transform="scale(0.015625)"/>
        <path id="ArialMT-63" d="M 2588 1216 
L 3141 1144 
Q 3050 572 2676 248 
Q 2303 -75 1759 -75 
Q 1078 -75 664 370 
Q 250 816 250 1647 
Q 250 2184 428 2587 
Q 606 2991 970 3192 
Q 1334 3394 1763 3394 
Q 2303 3394 2647 3120 
Q 2991 2847 3088 2344 
L 2541 2259 
Q 2463 2594 2264 2762 
Q 2066 2931 1784 2931 
Q 1359 2931 1093 2626 
Q 828 2322 828 1663 
Q 828 994 1084 691 
Q 1341 388 1753 388 
Q 2084 388 2306 591 
Q 2528 794 2588 1216 
z
" transform="scale(0.015625)"/>
        <path id="ArialMT-69" d="M 425 3934 
L 425 4581 
L 988 4581 
L 988 3934 
L 425 3934 
z
M 425 0 
L 425 3319 
L 988 3319 
L 988 0 
L 425 0 
z
" transform="scale(0.015625)"/>
        <path id="ArialMT-74" d="M 1650 503 
L 1731 6 
Q 1494 -44 1306 -44 
Q 1000 -44 831 53 
Q 663 150 594 308 
Q 525 466 525 972 
L 525 2881 
L 113 2881 
L 113 3319 
L 525 3319 
L 525 4141 
L 1084 4478 
L 1084 3319 
L 1650 3319 
L 1650 2881 
L 1084 2881 
L 1084 941 
Q 1084 700 1114 631 
Q 1144 563 1211 522 
Q 1278 481 1403 481 
Q 1497 481 1650 503 
z
" transform="scale(0.015625)"/>
       </defs>
       <use xlink:href="#ArialMT-42"/>
       <use xlink:href="#ArialMT-50" x="66.699219"/>
       <use xlink:href="#ArialMT-49" x="133.398438"/>
       <use xlink:href="#ArialMT-31" x="161.181641"/>
       <use xlink:href="#ArialMT-33" x="216.796875"/>
       <use xlink:href="#ArialMT-20" x="272.412109"/>
       <use xlink:href="#ArialMT-49" x="300.195312"/>
       <use xlink:href="#ArialMT-6e" x="327.978516"/>
       <use xlink:href="#ArialMT-63" x="383.59375"/>
       <use xlink:href="#ArialMT-69" x="433.59375"/>
       <use xlink:href="#ArialMT-64" x="455.810547"/>
       <use xlink:href="#ArialMT-65" x="511.425781"/>
       <use xlink:href="#ArialMT-6e" x="567.041016"/>
       <use xlink:href="#ArialMT-74" x="622.65625"/>
       <use xlink:href="#ArialMT-73" x="650.439453"/>
      </g>
     </g>
    </g>
    <g id="xtick_6">
     <g id="text_6">
      <!-- BPI13 Open -->
      <g style="fill: #262626" transform="translate(191.8676 354.227463) rotate(-30) scale(0.1 -0.1)">
       <defs>
        <path id="ArialMT-4f" d="M 309 2231 
Q 309 3372 921 4017 
Q 1534 4663 2503 4663 
Q 3138 4663 3647 4359 
Q 4156 4056 4423 3514 
Q 4691 2972 4691 2284 
Q 4691 1588 4409 1038 
Q 4128 488 3612 205 
Q 3097 -78 2500 -78 
Q 1853 -78 1343 234 
Q 834 547 571 1087 
Q 309 1628 309 2231 
z
M 934 2222 
Q 934 1394 1379 917 
Q 1825 441 2497 441 
Q 3181 441 3623 922 
Q 4066 1403 4066 2288 
Q 4066 2847 3877 3264 
Q 3688 3681 3323 3911 
Q 2959 4141 2506 4141 
Q 1863 4141 1398 3698 
Q 934 3256 934 2222 
z
" transform="scale(0.015625)"/>
        <path id="ArialMT-70" d="M 422 -1272 
L 422 3319 
L 934 3319 
L 934 2888 
Q 1116 3141 1344 3267 
Q 1572 3394 1897 3394 
Q 2322 3394 2647 3175 
Q 2972 2956 3137 2557 
Q 3303 2159 3303 1684 
Q 3303 1175 3120 767 
Q 2938 359 2589 142 
Q 2241 -75 1856 -75 
Q 1575 -75 1351 44 
Q 1128 163 984 344 
L 984 -1272 
L 422 -1272 
z
M 931 1641 
Q 931 1000 1190 694 
Q 1450 388 1819 388 
Q 2194 388 2461 705 
Q 2728 1022 2728 1688 
Q 2728 2322 2467 2637 
Q 2206 2953 1844 2953 
Q 1484 2953 1207 2617 
Q 931 2281 931 1641 
z
" transform="scale(0.015625)"/>
       </defs>
       <use xlink:href="#ArialMT-42"/>
       <use xlink:href="#ArialMT-50" x="66.699219"/>
       <use xlink:href="#ArialMT-49" x="133.398438"/>
       <use xlink:href="#ArialMT-31" x="161.181641"/>
       <use xlink:href="#ArialMT-33" x="216.796875"/>
       <use xlink:href="#ArialMT-20" x="272.412109"/>
       <use xlink:href="#ArialMT-4f" x="300.195312"/>
       <use xlink:href="#ArialMT-70" x="377.978516"/>
       <use xlink:href="#ArialMT-65" x="433.59375"/>
       <use xlink:href="#ArialMT-6e" x="489.208984"/>
      </g>
     </g>
    </g>
    <g id="xtick_7">
     <g id="text_7">
      <!-- Helpdesk -->
      <g style="fill: #262626" transform="translate(239.090837 347.72041) rotate(-30) scale(0.1 -0.1)">
       <defs>
        <path id="ArialMT-48" d="M 513 0 
L 513 4581 
L 1119 4581 
L 1119 2700 
L 3500 2700 
L 3500 4581 
L 4106 4581 
L 4106 0 
L 3500 0 
L 3500 2159 
L 1119 2159 
L 1119 0 
L 513 0 
z
" transform="scale(0.015625)"/>
        <path id="ArialMT-6b" d="M 425 0 
L 425 4581 
L 988 4581 
L 988 1969 
L 2319 3319 
L 3047 3319 
L 1778 2088 
L 3175 0 
L 2481 0 
L 1384 1697 
L 988 1316 
L 988 0 
L 425 0 
z
" transform="scale(0.015625)"/>
       </defs>
       <use xlink:href="#ArialMT-48"/>
       <use xlink:href="#ArialMT-65" x="72.216797"/>
       <use xlink:href="#ArialMT-6c" x="127.832031"/>
       <use xlink:href="#ArialMT-70" x="150.048828"/>
       <use xlink:href="#ArialMT-64" x="205.664062"/>
       <use xlink:href="#ArialMT-65" x="261.279297"/>
       <use xlink:href="#ArialMT-73" x="316.894531"/>
       <use xlink:href="#ArialMT-6b" x="366.894531"/>
      </g>
     </g>
    </g>
    <g id="xtick_8">
     <g id="text_8">
      <!-- RTFMP -->
      <g style="fill: #262626" transform="translate(281.665954 344.00791) rotate(-30) scale(0.1 -0.1)">
       <defs>
        <path id="ArialMT-52" d="M 503 0 
L 503 4581 
L 2534 4581 
Q 3147 4581 3465 4457 
Q 3784 4334 3975 4021 
Q 4166 3709 4166 3331 
Q 4166 2844 3850 2509 
Q 3534 2175 2875 2084 
Q 3116 1969 3241 1856 
Q 3506 1613 3744 1247 
L 4541 0 
L 3778 0 
L 3172 953 
Q 2906 1366 2734 1584 
Q 2563 1803 2427 1890 
Q 2291 1978 2150 2013 
Q 2047 2034 1813 2034 
L 1109 2034 
L 1109 0 
L 503 0 
z
M 1109 2559 
L 2413 2559 
Q 2828 2559 3062 2645 
Q 3297 2731 3419 2920 
Q 3541 3109 3541 3331 
Q 3541 3656 3305 3865 
Q 3069 4075 2559 4075 
L 1109 4075 
L 1109 2559 
z
" transform="scale(0.015625)"/>
        <path id="ArialMT-54" d="M 1659 0 
L 1659 4041 
L 150 4041 
L 150 4581 
L 3781 4581 
L 3781 4041 
L 2266 4041 
L 2266 0 
L 1659 0 
z
" transform="scale(0.015625)"/>
        <path id="ArialMT-46" d="M 525 0 
L 525 4581 
L 3616 4581 
L 3616 4041 
L 1131 4041 
L 1131 2622 
L 3281 2622 
L 3281 2081 
L 1131 2081 
L 1131 0 
L 525 0 
z
" transform="scale(0.015625)"/>
        <path id="ArialMT-4d" d="M 475 0 
L 475 4581 
L 1388 4581 
L 2472 1338 
Q 2622 884 2691 659 
Q 2769 909 2934 1394 
L 4031 4581 
L 4847 4581 
L 4847 0 
L 4263 0 
L 4263 3834 
L 2931 0 
L 2384 0 
L 1059 3900 
L 1059 0 
L 475 0 
z
" transform="scale(0.015625)"/>
       </defs>
       <use xlink:href="#ArialMT-52"/>
       <use xlink:href="#ArialMT-54" x="70.466797"/>
       <use xlink:href="#ArialMT-46" x="131.550781"/>
       <use xlink:href="#ArialMT-4d" x="192.634766"/>
       <use xlink:href="#ArialMT-50" x="275.935547"/>
      </g>
     </g>
    </g>
    <g id="xtick_9">
     <g id="text_9">
      <!-- Sepsis -->
      <g style="fill: #262626" transform="translate(321.490087 341.989238) rotate(-30) scale(0.1 -0.1)">
       <defs>
        <path id="ArialMT-53" d="M 288 1472 
L 859 1522 
Q 900 1178 1048 958 
Q 1197 738 1509 602 
Q 1822 466 2213 466 
Q 2559 466 2825 569 
Q 3091 672 3220 851 
Q 3350 1031 3350 1244 
Q 3350 1459 3225 1620 
Q 3100 1781 2813 1891 
Q 2628 1963 1997 2114 
Q 1366 2266 1113 2400 
Q 784 2572 623 2826 
Q 463 3081 463 3397 
Q 463 3744 659 4045 
Q 856 4347 1234 4503 
Q 1613 4659 2075 4659 
Q 2584 4659 2973 4495 
Q 3363 4331 3572 4012 
Q 3781 3694 3797 3291 
L 3216 3247 
Q 3169 3681 2898 3903 
Q 2628 4125 2100 4125 
Q 1550 4125 1298 3923 
Q 1047 3722 1047 3438 
Q 1047 3191 1225 3031 
Q 1400 2872 2139 2705 
Q 2878 2538 3153 2413 
Q 3553 2228 3743 1945 
Q 3934 1663 3934 1294 
Q 3934 928 3725 604 
Q 3516 281 3123 101 
Q 2731 -78 2241 -78 
Q 1619 -78 1198 103 
Q 778 284 539 648 
Q 300 1013 288 1472 
z
" transform="scale(0.015625)"/>
       </defs>
       <use xlink:href="#ArialMT-53"/>
       <use xlink:href="#ArialMT-65" x="66.699219"/>
       <use xlink:href="#ArialMT-70" x="122.314453"/>
       <use xlink:href="#ArialMT-73" x="177.929688"/>
       <use xlink:href="#ArialMT-69" x="227.929688"/>
       <use xlink:href="#ArialMT-73" x="250.146484"/>
      </g>
     </g>
    </g>
    <g id="text_10">
     <!-- log -->
     <g style="fill: #262626" transform="translate(197.22539 374.77601) scale(0.1 -0.1)">
      <defs>
       <path id="ArialMT-67" d="M 319 -275 
L 866 -356 
Q 900 -609 1056 -725 
Q 1266 -881 1628 -881 
Q 2019 -881 2231 -725 
Q 2444 -569 2519 -288 
Q 2563 -116 2559 434 
Q 2191 0 1641 0 
Q 956 0 581 494 
Q 206 988 206 1678 
Q 206 2153 378 2554 
Q 550 2956 876 3175 
Q 1203 3394 1644 3394 
Q 2231 3394 2613 2919 
L 2613 3319 
L 3131 3319 
L 3131 450 
Q 3131 -325 2973 -648 
Q 2816 -972 2473 -1159 
Q 2131 -1347 1631 -1347 
Q 1038 -1347 672 -1080 
Q 306 -813 319 -275 
z
M 784 1719 
Q 784 1066 1043 766 
Q 1303 466 1694 466 
Q 2081 466 2343 764 
Q 2606 1063 2606 1700 
Q 2606 2309 2336 2618 
Q 2066 2928 1684 2928 
Q 1309 2928 1046 2623 
Q 784 2319 784 1719 
z
" transform="scale(0.015625)"/>
      </defs>
      <use xlink:href="#ArialMT-6c"/>
      <use xlink:href="#ArialMT-6f" x="22.216797"/>
      <use xlink:href="#ArialMT-67" x="77.832031"/>
     </g>
    </g>
   </g>
   <g id="matplotlib.axis_2">
    <g id="ytick_1">
     <g id="line2d_1">
      <path d="M 41.245313 301.403609 
L 366.549217 301.403609 
" clip-path="url(#peee1ac8132)" style="fill: none; stroke: #ffffff; stroke-width: 0.8; stroke-linecap: round"/>
     </g>
     <g id="text_11">
      <!-- 0.0 -->
      <g style="fill: #262626" transform="translate(20.345313 304.982515) scale(0.1 -0.1)">
       <defs>
        <path id="ArialMT-30" d="M 266 2259 
Q 266 3072 433 3567 
Q 600 4063 929 4331 
Q 1259 4600 1759 4600 
Q 2128 4600 2406 4451 
Q 2684 4303 2865 4023 
Q 3047 3744 3150 3342 
Q 3253 2941 3253 2259 
Q 3253 1453 3087 958 
Q 2922 463 2592 192 
Q 2263 -78 1759 -78 
Q 1097 -78 719 397 
Q 266 969 266 2259 
z
M 844 2259 
Q 844 1131 1108 757 
Q 1372 384 1759 384 
Q 2147 384 2411 759 
Q 2675 1134 2675 2259 
Q 2675 3391 2411 3762 
Q 2147 4134 1753 4134 
Q 1366 4134 1134 3806 
Q 844 3388 844 2259 
z
" transform="scale(0.015625)"/>
        <path id="ArialMT-2e" d="M 581 0 
L 581 641 
L 1222 641 
L 1222 0 
L 581 0 
z
" transform="scale(0.015625)"/>
       </defs>
       <use xlink:href="#ArialMT-30"/>
       <use xlink:href="#ArialMT-2e" x="55.615234"/>
       <use xlink:href="#ArialMT-30" x="83.398438"/>
      </g>
     </g>
    </g>
    <g id="ytick_2">
     <g id="line2d_2">
      <path d="M 41.245313 239.137515 
L 366.549217 239.137515 
" clip-path="url(#peee1ac8132)" style="fill: none; stroke: #ffffff; stroke-width: 0.8; stroke-linecap: round"/>
     </g>
     <g id="text_12">
      <!-- 0.2 -->
      <g style="fill: #262626" transform="translate(20.345313 242.716422) scale(0.1 -0.1)">
       <use xlink:href="#ArialMT-30"/>
       <use xlink:href="#ArialMT-2e" x="55.615234"/>
       <use xlink:href="#ArialMT-32" x="83.398438"/>
      </g>
     </g>
    </g>
    <g id="ytick_3">
     <g id="line2d_3">
      <path d="M 41.245313 176.871422 
L 366.549217 176.871422 
" clip-path="url(#peee1ac8132)" style="fill: none; stroke: #ffffff; stroke-width: 0.8; stroke-linecap: round"/>
     </g>
     <g id="text_13">
      <!-- 0.4 -->
      <g style="fill: #262626" transform="translate(20.345313 180.450328) scale(0.1 -0.1)">
       <defs>
        <path id="ArialMT-34" d="M 2069 0 
L 2069 1097 
L 81 1097 
L 81 1613 
L 2172 4581 
L 2631 4581 
L 2631 1613 
L 3250 1613 
L 3250 1097 
L 2631 1097 
L 2631 0 
L 2069 0 
z
M 2069 1613 
L 2069 3678 
L 634 1613 
L 2069 1613 
z
" transform="scale(0.015625)"/>
       </defs>
       <use xlink:href="#ArialMT-30"/>
       <use xlink:href="#ArialMT-2e" x="55.615234"/>
       <use xlink:href="#ArialMT-34" x="83.398438"/>
      </g>
     </g>
    </g>
    <g id="ytick_4">
     <g id="line2d_4">
      <path d="M 41.245313 114.605328 
L 366.549217 114.605328 
" clip-path="url(#peee1ac8132)" style="fill: none; stroke: #ffffff; stroke-width: 0.8; stroke-linecap: round"/>
     </g>
     <g id="text_14">
      <!-- 0.6 -->
      <g style="fill: #262626" transform="translate(20.345313 118.184235) scale(0.1 -0.1)">
       <defs>
        <path id="ArialMT-36" d="M 3184 3459 
L 2625 3416 
Q 2550 3747 2413 3897 
Q 2184 4138 1850 4138 
Q 1581 4138 1378 3988 
Q 1113 3794 959 3422 
Q 806 3050 800 2363 
Q 1003 2672 1297 2822 
Q 1591 2972 1913 2972 
Q 2475 2972 2870 2558 
Q 3266 2144 3266 1488 
Q 3266 1056 3080 686 
Q 2894 316 2569 119 
Q 2244 -78 1831 -78 
Q 1128 -78 684 439 
Q 241 956 241 2144 
Q 241 3472 731 4075 
Q 1159 4600 1884 4600 
Q 2425 4600 2770 4297 
Q 3116 3994 3184 3459 
z
M 888 1484 
Q 888 1194 1011 928 
Q 1134 663 1356 523 
Q 1578 384 1822 384 
Q 2178 384 2434 671 
Q 2691 959 2691 1453 
Q 2691 1928 2437 2201 
Q 2184 2475 1800 2475 
Q 1419 2475 1153 2201 
Q 888 1928 888 1484 
z
" transform="scale(0.015625)"/>
       </defs>
       <use xlink:href="#ArialMT-30"/>
       <use xlink:href="#ArialMT-2e" x="55.615234"/>
       <use xlink:href="#ArialMT-36" x="83.398438"/>
      </g>
     </g>
    </g>
    <g id="ytick_5">
     <g id="line2d_5">
      <path d="M 41.245313 52.339235 
L 366.549217 52.339235 
" clip-path="url(#peee1ac8132)" style="fill: none; stroke: #ffffff; stroke-width: 0.8; stroke-linecap: round"/>
     </g>
     <g id="text_15">
      <!-- 0.8 -->
      <g style="fill: #262626" transform="translate(20.345313 55.918141) scale(0.1 -0.1)">
       <defs>
        <path id="ArialMT-38" d="M 1131 2484 
Q 781 2613 612 2850 
Q 444 3088 444 3419 
Q 444 3919 803 4259 
Q 1163 4600 1759 4600 
Q 2359 4600 2725 4251 
Q 3091 3903 3091 3403 
Q 3091 3084 2923 2848 
Q 2756 2613 2416 2484 
Q 2838 2347 3058 2040 
Q 3278 1734 3278 1309 
Q 3278 722 2862 322 
Q 2447 -78 1769 -78 
Q 1091 -78 675 323 
Q 259 725 259 1325 
Q 259 1772 486 2073 
Q 713 2375 1131 2484 
z
M 1019 3438 
Q 1019 3113 1228 2906 
Q 1438 2700 1772 2700 
Q 2097 2700 2305 2904 
Q 2513 3109 2513 3406 
Q 2513 3716 2298 3927 
Q 2084 4138 1766 4138 
Q 1444 4138 1231 3931 
Q 1019 3725 1019 3438 
z
M 838 1322 
Q 838 1081 952 856 
Q 1066 631 1291 507 
Q 1516 384 1775 384 
Q 2178 384 2440 643 
Q 2703 903 2703 1303 
Q 2703 1709 2433 1975 
Q 2163 2241 1756 2241 
Q 1359 2241 1098 1978 
Q 838 1716 838 1322 
z
" transform="scale(0.015625)"/>
       </defs>
       <use xlink:href="#ArialMT-30"/>
       <use xlink:href="#ArialMT-2e" x="55.615234"/>
       <use xlink:href="#ArialMT-38" x="83.398438"/>
      </g>
     </g>
    </g>
    <g id="text_16">
     <!-- dls -->
     <g style="fill: #262626" transform="translate(14.357813 173.409219) rotate(-90) scale(0.1 -0.1)">
      <use xlink:href="#ArialMT-64"/>
      <use xlink:href="#ArialMT-6c" x="55.615234"/>
      <use xlink:href="#ArialMT-73" x="77.832031"/>
     </g>
    </g>
   </g>
   <g id="line2d_6">
    <defs>
     <path id="m4254db318e" d="M -3.383948 3.383948 
L 3.383948 -3.383948 
M -3.383948 -3.383948 
L 3.383948 3.383948 
" style="stroke: #1f77b4; stroke-width: 2.025"/>
    </defs>
    <g clip-path="url(#peee1ac8132)">
     <use xlink:href="#m4254db318e" x="50.281532" y="284.311566" style="fill: #1f77b4; stroke: #1f77b4; stroke-width: 2.025"/>
     <use xlink:href="#m4254db318e" x="86.42641" y="293.962811" style="fill: #1f77b4; stroke: #1f77b4; stroke-width: 2.025"/>
     <use xlink:href="#m4254db318e" x="122.571289" y="282.038854" style="fill: #1f77b4; stroke: #1f77b4; stroke-width: 2.025"/>
     <use xlink:href="#m4254db318e" x="158.716167" y="145.302512" style="fill: #1f77b4; stroke: #1f77b4; stroke-width: 2.025"/>
     <use xlink:href="#m4254db318e" x="194.861045" y="218.838769" style="fill: #1f77b4; stroke: #1f77b4; stroke-width: 2.025"/>
     <use xlink:href="#m4254db318e" x="231.005924" y="161.304898" style="fill: #1f77b4; stroke: #1f77b4; stroke-width: 2.025"/>
     <use xlink:href="#m4254db318e" x="267.150802" y="35.029261" style="fill: #1f77b4; stroke: #1f77b4; stroke-width: 2.025"/>
     <use xlink:href="#m4254db318e" x="303.29568" y="118.963955" style="fill: #1f77b4; stroke: #1f77b4; stroke-width: 2.025"/>
     <use xlink:href="#m4254db318e" x="339.440558" y="271.204553" style="fill: #1f77b4; stroke: #1f77b4; stroke-width: 2.025"/>
    </g>
   </g>
   <g id="line2d_7">
    <defs>
     <path id="mbc9b81eb4a" d="M -3.383948 3.383948 
L 3.383948 -3.383948 
M -3.383948 -3.383948 
L 3.383948 3.383948 
" style="stroke: #ff7f0e; stroke-width: 2.025"/>
    </defs>
    <g clip-path="url(#peee1ac8132)">
     <use xlink:href="#mbc9b81eb4a" x="59.317752" y="282.786047" style="fill: #ff7f0e; stroke: #ff7f0e; stroke-width: 2.025"/>
     <use xlink:href="#mbc9b81eb4a" x="95.46263" y="291.067437" style="fill: #ff7f0e; stroke: #ff7f0e; stroke-width: 2.025"/>
     <use xlink:href="#mbc9b81eb4a" x="131.607508" y="258.533403" style="fill: #ff7f0e; stroke: #ff7f0e; stroke-width: 2.025"/>
     <use xlink:href="#mbc9b81eb4a" x="167.752387" y="84.748736" style="fill: #ff7f0e; stroke: #ff7f0e; stroke-width: 2.025"/>
     <use xlink:href="#mbc9b81eb4a" x="203.897265" y="149.069611" style="fill: #ff7f0e; stroke: #ff7f0e; stroke-width: 2.025"/>
     <use xlink:href="#mbc9b81eb4a" x="240.042143" y="148.291285" style="fill: #ff7f0e; stroke: #ff7f0e; stroke-width: 2.025"/>
     <use xlink:href="#mbc9b81eb4a" x="312.3319" y="65.913243" style="fill: #ff7f0e; stroke: #ff7f0e; stroke-width: 2.025"/>
     <use xlink:href="#mbc9b81eb4a" x="348.476778" y="253.583249" style="fill: #ff7f0e; stroke: #ff7f0e; stroke-width: 2.025"/>
    </g>
   </g>
   <g id="line2d_8">
    <defs>
     <path id="ma06210c62e" d="M -3.383948 3.383948 
L 3.383948 -3.383948 
M -3.383948 -3.383948 
L 3.383948 3.383948 
" style="stroke: #2ca02c; stroke-width: 2.025"/>
    </defs>
    <g clip-path="url(#peee1ac8132)">
     <use xlink:href="#ma06210c62e" x="68.353971" y="287.082407" style="fill: #2ca02c; stroke: #2ca02c; stroke-width: 2.025"/>
     <use xlink:href="#ma06210c62e" x="104.49885" y="290.818373" style="fill: #2ca02c; stroke: #2ca02c; stroke-width: 2.025"/>
     <use xlink:href="#ma06210c62e" x="140.643728" y="264.417549" style="fill: #2ca02c; stroke: #2ca02c; stroke-width: 2.025"/>
     <use xlink:href="#ma06210c62e" x="176.788606" y="84.219475" style="fill: #2ca02c; stroke: #2ca02c; stroke-width: 2.025"/>
     <use xlink:href="#ma06210c62e" x="212.933484" y="148.789414" style="fill: #2ca02c; stroke: #2ca02c; stroke-width: 2.025"/>
     <use xlink:href="#ma06210c62e" x="249.078363" y="135.122006" style="fill: #2ca02c; stroke: #2ca02c; stroke-width: 2.025"/>
     <use xlink:href="#ma06210c62e" x="285.223241" y="33.69054" style="fill: #2ca02c; stroke: #2ca02c; stroke-width: 2.025"/>
     <use xlink:href="#ma06210c62e" x="357.512998" y="239.38658" style="fill: #2ca02c; stroke: #2ca02c; stroke-width: 2.025"/>
    </g>
   </g>
   <g id="patch_3">
    <path d="M 41.245313 313.677812 
L 41.245313 20.357812 
" style="fill: none; stroke: #ffffff; stroke-width: 0.8; stroke-linejoin: miter; stroke-linecap: square"/>
   </g>
   <g id="patch_4">
    <path d="M 41.245313 313.677812 
L 366.549217 313.677812 
" style="fill: none; stroke: #ffffff; stroke-width: 0.8; stroke-linejoin: miter; stroke-linecap: square"/>
   </g>
   <g id="PathCollection_1">
    <defs>
     <path id="m4cf4415701" d="M 0 2.5 
C 0.663008 2.5 1.29895 2.236584 1.767767 1.767767 
C 2.236584 1.29895 2.5 0.663008 2.5 0 
C 2.5 -0.663008 2.236584 -1.29895 1.767767 -1.767767 
C 1.29895 -2.236584 0.663008 -2.5 0 -2.5 
C -0.663008 -2.5 -1.29895 -2.236584 -1.767767 -1.767767 
C -2.236584 -1.29895 -2.5 -0.663008 -2.5 0 
C -2.5 0.663008 -2.236584 1.29895 -1.767767 1.767767 
C -1.29895 2.236584 -0.663008 2.5 0 2.5 
z
"/>
    </defs>
    <g clip-path="url(#peee1ac8132)">
     <use xlink:href="#m4cf4415701" x="49.679117" y="279.890674" style="fill: #1f77b4"/>
    </g>
   </g>
   <g id="PathCollection_2">
    <path d="M 0 386.580698 
C 0.663008 386.580698 1.29895 386.317282 1.767767 385.848465 
C 2.236584 385.379648 2.5 384.743706 2.5 384.080698 
C 2.5 383.41769 2.236584 382.781748 1.767767 382.312931 
C 1.29895 381.844114 0.663008 381.580698 0 381.580698 
C -0.663008 381.580698 -1.29895 381.844114 -1.767767 382.312931 
C -2.236584 382.781748 -2.5 383.41769 -2.5 384.080698 
C -2.5 384.743706 -2.236584 385.379648 -1.767767 385.848465 
C -1.29895 386.317282 -0.663008 386.580698 0 386.580698 
" clip-path="url(#peee1ac8132)" style="fill: none"/>
   </g>
   <g id="PathCollection_3">
    <path d="M 0 386.580698 
C 0.663008 386.580698 1.29895 386.317282 1.767767 385.848465 
C 2.236584 385.379648 2.5 384.743706 2.5 384.080698 
C 2.5 383.41769 2.236584 382.781748 1.767767 382.312931 
C 1.29895 381.844114 0.663008 381.580698 0 381.580698 
C -0.663008 381.580698 -1.29895 381.844114 -1.767767 382.312931 
C -2.236584 382.781748 -2.5 383.41769 -2.5 384.080698 
C -2.5 384.743706 -2.236584 385.379648 -1.767767 385.848465 
C -1.29895 386.317282 -0.663008 386.580698 0 386.580698 
" clip-path="url(#peee1ac8132)" style="fill: none"/>
   </g>
   <g id="PathCollection_4">
    <g clip-path="url(#peee1ac8132)">
     <use xlink:href="#m4cf4415701" x="85.823996" y="293.184484" style="fill: #1f77b4"/>
    </g>
   </g>
   <g id="PathCollection_5">
    <defs>
     <path id="C0_0_90c706d5d6" d="M 0 2.5 
C 0.663008 2.5 1.29895 2.236584 1.767767 1.767767 
C 2.236584 1.29895 2.5 0.663008 2.5 -0 
C 2.5 -0.663008 2.236584 -1.29895 1.767767 -1.767767 
C 1.29895 -2.236584 0.663008 -2.5 0 -2.5 
C -0.663008 -2.5 -1.29895 -2.236584 -1.767767 -1.767767 
C -2.236584 -1.29895 -2.5 -0.663008 -2.5 0 
C -2.5 0.663008 -2.236584 1.29895 -1.767767 1.767767 
C -1.29895 2.236584 -0.663008 2.5 0 2.5 
z
"/>
    </defs>
    <g clip-path="url(#peee1ac8132)">
     <use xlink:href="#C0_0_90c706d5d6" x="95.283958" y="294.36754" style="fill: #ff7f0e"/>
    </g>
    <g clip-path="url(#peee1ac8132)">
     <use xlink:href="#C0_0_90c706d5d6" x="95.597134" y="291.347635" style="fill: #ff7f0e"/>
    </g>
    <g clip-path="url(#peee1ac8132)">
     <use xlink:href="#C0_0_90c706d5d6" x="95.779787" y="294.087343" style="fill: #ff7f0e"/>
    </g>
    <g clip-path="url(#peee1ac8132)">
     <use xlink:href="#C0_0_90c706d5d6" x="95.504674" y="293.277884" style="fill: #ff7f0e"/>
    </g>
    <g clip-path="url(#peee1ac8132)">
     <use xlink:href="#C0_0_90c706d5d6" x="95.967627" y="294.398673" style="fill: #ff7f0e"/>
    </g>
    <g clip-path="url(#peee1ac8132)">
     <use xlink:href="#C0_0_90c706d5d6" x="95.878648" y="293.993944" style="fill: #ff7f0e"/>
    </g>
    <g clip-path="url(#peee1ac8132)">
     <use xlink:href="#C0_0_90c706d5d6" x="95.153986" y="293.807145" style="fill: #ff7f0e"/>
    </g>
   </g>
   <g id="PathCollection_6">
    <defs>
     <path id="C1_0_128fe78e25" d="M 0 2.5 
C 0.663008 2.5 1.29895 2.236584 1.767767 1.767767 
C 2.236584 1.29895 2.5 0.663008 2.5 -0 
C 2.5 -0.663008 2.236584 -1.29895 1.767767 -1.767767 
C 1.29895 -2.236584 0.663008 -2.5 0 -2.5 
C -0.663008 -2.5 -1.29895 -2.236584 -1.767767 -1.767767 
C -2.236584 -1.29895 -2.5 -0.663008 -2.5 0 
C -2.5 0.663008 -2.236584 1.29895 -1.767767 1.767767 
C -1.29895 2.236584 -0.663008 2.5 0 2.5 
z
"/>
    </defs>
    <g clip-path="url(#peee1ac8132)">
     <use xlink:href="#C1_0_128fe78e25" x="104.833311" y="291.90803" style="fill: #2ca02c"/>
    </g>
    <g clip-path="url(#peee1ac8132)">
     <use xlink:href="#C1_0_128fe78e25" x="104.601834" y="293.246751" style="fill: #2ca02c"/>
    </g>
    <g clip-path="url(#peee1ac8132)">
     <use xlink:href="#C1_0_128fe78e25" x="104.266363" y="293.184484" style="fill: #2ca02c"/>
    </g>
    <g clip-path="url(#peee1ac8132)">
     <use xlink:href="#C1_0_128fe78e25" x="106.117168" y="292.21936" style="fill: #2ca02c"/>
    </g>
    <g clip-path="url(#peee1ac8132)">
     <use xlink:href="#C1_0_128fe78e25" x="105.111153" y="273.352734" style="fill: #2ca02c"/>
    </g>
    <g clip-path="url(#peee1ac8132)">
     <use xlink:href="#C1_0_128fe78e25" x="105.862128" y="292.93542" style="fill: #2ca02c"/>
    </g>
    <g clip-path="url(#peee1ac8132)">
     <use xlink:href="#C1_0_128fe78e25" x="106.00799" y="292.93542" style="fill: #2ca02c"/>
    </g>
   </g>
   <g id="PathCollection_7">
    <g clip-path="url(#peee1ac8132)">
     <use xlink:href="#m4cf4415701" x="121.968874" y="269.274305" style="fill: #1f77b4"/>
    </g>
   </g>
   <g id="PathCollection_8">
    <defs>
     <path id="C2_0_50d49eab48" d="M 0 2.5 
C 0.663008 2.5 1.29895 2.236584 1.767767 1.767767 
C 2.236584 1.29895 2.5 0.663008 2.5 -0 
C 2.5 -0.663008 2.236584 -1.29895 1.767767 -1.767767 
C 1.29895 -2.236584 0.663008 -2.5 0 -2.5 
C -0.663008 -2.5 -1.29895 -2.236584 -1.767767 -1.767767 
C -2.236584 -1.29895 -2.5 -0.663008 -2.5 0 
C -2.5 0.663008 -2.236584 1.29895 -1.767767 1.767767 
C -1.29895 2.236584 -0.663008 2.5 0 2.5 
z
"/>
    </defs>
    <g clip-path="url(#peee1ac8132)">
     <use xlink:href="#C2_0_50d49eab48" x="132.221458" y="267.717652" style="fill: #ff7f0e"/>
    </g>
    <g clip-path="url(#peee1ac8132)">
     <use xlink:href="#C2_0_50d49eab48" x="132.27264" y="279.735008" style="fill: #ff7f0e"/>
    </g>
    <g clip-path="url(#peee1ac8132)">
     <use xlink:href="#C2_0_50d49eab48" x="131.626284" y="280.170871" style="fill: #ff7f0e"/>
    </g>
    <g clip-path="url(#peee1ac8132)">
     <use xlink:href="#C2_0_50d49eab48" x="132.547323" y="279.984073" style="fill: #ff7f0e"/>
    </g>
    <g clip-path="url(#peee1ac8132)">
     <use xlink:href="#C2_0_50d49eab48" x="131.005718" y="279.454811" style="fill: #ff7f0e"/>
    </g>
    <g clip-path="url(#peee1ac8132)">
     <use xlink:href="#C2_0_50d49eab48" x="131.951006" y="260.276854" style="fill: #ff7f0e"/>
    </g>
    <g clip-path="url(#peee1ac8132)">
     <use xlink:href="#C2_0_50d49eab48" x="130.423442" y="277.462296" style="fill: #ff7f0e"/>
    </g>
   </g>
   <g id="PathCollection_9">
    <defs>
     <path id="C3_0_75da7f6467" d="M 0 2.5 
C 0.663008 2.5 1.29895 2.236584 1.767767 1.767767 
C 2.236584 1.29895 2.5 0.663008 2.5 -0 
C 2.5 -0.663008 2.236584 -1.29895 1.767767 -1.767767 
C 1.29895 -2.236584 0.663008 -2.5 0 -2.5 
C -0.663008 -2.5 -1.29895 -2.236584 -1.767767 -1.767767 
C -2.236584 -1.29895 -2.5 -0.663008 -2.5 0 
C -2.5 0.663008 -2.236584 1.29895 -1.767767 1.767767 
C -1.29895 2.236584 -0.663008 2.5 0 2.5 
z
"/>
    </defs>
    <g clip-path="url(#peee1ac8132)">
     <use xlink:href="#C3_0_75da7f6467" x="142.443699" y="271.702682" style="fill: #2ca02c"/>
    </g>
    <g clip-path="url(#peee1ac8132)">
     <use xlink:href="#C3_0_75da7f6467" x="140.891329" y="281.634124" style="fill: #2ca02c"/>
    </g>
    <g clip-path="url(#peee1ac8132)">
     <use xlink:href="#C3_0_75da7f6467" x="140.660094" y="275.532047" style="fill: #2ca02c"/>
    </g>
    <g clip-path="url(#peee1ac8132)">
     <use xlink:href="#C3_0_75da7f6467" x="140.043401" y="280.388802" style="fill: #2ca02c"/>
    </g>
    <g clip-path="url(#peee1ac8132)">
     <use xlink:href="#C3_0_75da7f6467" x="141.463671" y="246.64058" style="fill: #2ca02c"/>
    </g>
    <g clip-path="url(#peee1ac8132)">
     <use xlink:href="#C3_0_75da7f6467" x="140.472571" y="277.431163" style="fill: #2ca02c"/>
    </g>
    <g clip-path="url(#peee1ac8132)">
     <use xlink:href="#C3_0_75da7f6467" x="141.812762" y="283.720038" style="fill: #2ca02c"/>
    </g>
   </g>
   <g id="PathCollection_10">
    <g clip-path="url(#peee1ac8132)">
     <use xlink:href="#m4cf4415701" x="158.113752" y="129.64259" style="fill: #1f77b4"/>
    </g>
   </g>
   <g id="PathCollection_11">
    <defs>
     <path id="C4_0_14515b4ebb" d="M 0 2.5 
C 0.663008 2.5 1.29895 2.236584 1.767767 1.767767 
C 2.236584 1.29895 2.5 0.663008 2.5 -0 
C 2.5 -0.663008 2.236584 -1.29895 1.767767 -1.767767 
C 1.29895 -2.236584 0.663008 -2.5 0 -2.5 
C -0.663008 -2.5 -1.29895 -2.236584 -1.767767 -1.767767 
C -2.236584 -1.29895 -2.5 -0.663008 -2.5 0 
C -2.5 0.663008 -2.236584 1.29895 -1.767767 1.767767 
C -1.29895 2.236584 -0.663008 2.5 0 2.5 
z
"/>
    </defs>
    <g clip-path="url(#peee1ac8132)">
     <use xlink:href="#C4_0_14515b4ebb" x="167.272089" y="194.492726" style="fill: #ff7f0e"/>
    </g>
    <g clip-path="url(#peee1ac8132)">
     <use xlink:href="#C4_0_14515b4ebb" x="167.175747" y="165.352194" style="fill: #ff7f0e"/>
    </g>
    <g clip-path="url(#peee1ac8132)">
     <use xlink:href="#C4_0_14515b4ebb" x="168.693369" y="86.865784" style="fill: #ff7f0e"/>
    </g>
    <g clip-path="url(#peee1ac8132)">
     <use xlink:href="#C4_0_14515b4ebb" x="167.656206" y="156.385877" style="fill: #ff7f0e"/>
    </g>
    <g clip-path="url(#peee1ac8132)">
     <use xlink:href="#C4_0_14515b4ebb" x="168.182554" y="89.38756" style="fill: #ff7f0e"/>
    </g>
    <g clip-path="url(#peee1ac8132)">
     <use xlink:href="#C4_0_14515b4ebb" x="168.906778" y="175.127971" style="fill: #ff7f0e"/>
    </g>
    <g clip-path="url(#peee1ac8132)">
     <use xlink:href="#C4_0_14515b4ebb" x="168.486346" y="175.190237" style="fill: #ff7f0e"/>
    </g>
   </g>
   <g id="PathCollection_12">
    <defs>
     <path id="C5_0_8f34693d3c" d="M 0 2.5 
C 0.663008 2.5 1.29895 2.236584 1.767767 1.767767 
C 2.236584 1.29895 2.5 0.663008 2.5 -0 
C 2.5 -0.663008 2.236584 -1.29895 1.767767 -1.767767 
C 1.29895 -2.236584 0.663008 -2.5 0 -2.5 
C -0.663008 -2.5 -1.29895 -2.236584 -1.767767 -1.767767 
C -2.236584 -1.29895 -2.5 -0.663008 -2.5 0 
C -2.5 0.663008 -2.236584 1.29895 -1.767767 1.767767 
C -1.29895 2.236584 -0.663008 2.5 0 2.5 
z
"/>
    </defs>
    <g clip-path="url(#peee1ac8132)">
     <use xlink:href="#C5_0_8f34693d3c" x="176.325552" y="133.347422" style="fill: #2ca02c"/>
    </g>
    <g clip-path="url(#peee1ac8132)">
     <use xlink:href="#C5_0_8f34693d3c" x="177.105401" y="147.668624" style="fill: #2ca02c"/>
    </g>
    <g clip-path="url(#peee1ac8132)">
     <use xlink:href="#C5_0_8f34693d3c" x="177.228754" y="84.997801" style="fill: #2ca02c"/>
    </g>
    <g clip-path="url(#peee1ac8132)">
     <use xlink:href="#C5_0_8f34693d3c" x="178.075416" y="137.332452" style="fill: #2ca02c"/>
    </g>
    <g clip-path="url(#peee1ac8132)">
     <use xlink:href="#C5_0_8f34693d3c" x="177.601825" y="82.631689" style="fill: #2ca02c"/>
    </g>
    <g clip-path="url(#peee1ac8132)">
     <use xlink:href="#C5_0_8f34693d3c" x="177.589818" y="141.628813" style="fill: #2ca02c"/>
    </g>
    <g clip-path="url(#peee1ac8132)">
     <use xlink:href="#C5_0_8f34693d3c" x="177.561472" y="123.665045" style="fill: #2ca02c"/>
    </g>
   </g>
   <g id="PathCollection_13">
    <g clip-path="url(#peee1ac8132)">
     <use xlink:href="#m4cf4415701" x="194.258631" y="220.457687" style="fill: #1f77b4"/>
    </g>
   </g>
   <g id="PathCollection_14">
    <defs>
     <path id="C6_0_f3d2c22aff" d="M 0 2.5 
C 0.663008 2.5 1.29895 2.236584 1.767767 1.767767 
C 2.236584 1.29895 2.5 0.663008 2.5 -0 
C 2.5 -0.663008 2.236584 -1.29895 1.767767 -1.767767 
C 1.29895 -2.236584 0.663008 -2.5 0 -2.5 
C -0.663008 -2.5 -1.29895 -2.236584 -1.767767 -1.767767 
C -2.236584 -1.29895 -2.5 -0.663008 -2.5 0 
C -2.5 0.663008 -2.236584 1.29895 -1.767767 1.767767 
C -1.29895 2.236584 -0.663008 2.5 0 2.5 
z
"/>
    </defs>
    <g clip-path="url(#peee1ac8132)">
     <use xlink:href="#C6_0_f3d2c22aff" x="203.590363" y="220.364288" style="fill: #ff7f0e"/>
    </g>
    <g clip-path="url(#peee1ac8132)">
     <use xlink:href="#C6_0_f3d2c22aff" x="204.767204" y="220.208623" style="fill: #ff7f0e"/>
    </g>
    <g clip-path="url(#peee1ac8132)">
     <use xlink:href="#C6_0_f3d2c22aff" x="203.787126" y="149.474341" style="fill: #ff7f0e"/>
    </g>
    <g clip-path="url(#peee1ac8132)">
     <use xlink:href="#C6_0_f3d2c22aff" x="203.447204" y="220.208623" style="fill: #ff7f0e"/>
    </g>
    <g clip-path="url(#peee1ac8132)">
     <use xlink:href="#C6_0_f3d2c22aff" x="203.657866" y="220.302022" style="fill: #ff7f0e"/>
    </g>
    <g clip-path="url(#peee1ac8132)">
     <use xlink:href="#C6_0_f3d2c22aff" x="204.355722" y="220.17749" style="fill: #ff7f0e"/>
    </g>
    <g clip-path="url(#peee1ac8132)">
     <use xlink:href="#C6_0_f3d2c22aff" x="203.099925" y="220.146357" style="fill: #ff7f0e"/>
    </g>
   </g>
   <g id="PathCollection_15">
    <defs>
     <path id="C7_0_9c6930ac97" d="M 0 2.5 
C 0.663008 2.5 1.29895 2.236584 1.767767 1.767767 
C 2.236584 1.29895 2.5 0.663008 2.5 -0 
C 2.5 -0.663008 2.236584 -1.29895 1.767767 -1.767767 
C 1.29895 -2.236584 0.663008 -2.5 0 -2.5 
C -0.663008 -2.5 -1.29895 -2.236584 -1.767767 -1.767767 
C -2.236584 -1.29895 -2.5 -0.663008 -2.5 0 
C -2.5 0.663008 -2.236584 1.29895 -1.767767 1.767767 
C -1.29895 2.236584 -0.663008 2.5 0 2.5 
z
"/>
    </defs>
    <g clip-path="url(#peee1ac8132)">
     <use xlink:href="#C7_0_9c6930ac97" x="214.505588" y="205.327027" style="fill: #2ca02c"/>
    </g>
    <g clip-path="url(#peee1ac8132)">
     <use xlink:href="#C7_0_9c6930ac97" x="212.352457" y="219.866159" style="fill: #2ca02c"/>
    </g>
    <g clip-path="url(#peee1ac8132)">
     <use xlink:href="#C7_0_9c6930ac97" x="214.160841" y="220.426554" style="fill: #2ca02c"/>
    </g>
    <g clip-path="url(#peee1ac8132)">
     <use xlink:href="#C7_0_9c6930ac97" x="214.735115" y="220.426554" style="fill: #2ca02c"/>
    </g>
    <g clip-path="url(#peee1ac8132)">
     <use xlink:href="#C7_0_9c6930ac97" x="214.385533" y="220.146357" style="fill: #2ca02c"/>
    </g>
    <g clip-path="url(#peee1ac8132)">
     <use xlink:href="#C7_0_9c6930ac97" x="213.21827" y="220.426554" style="fill: #2ca02c"/>
    </g>
    <g clip-path="url(#peee1ac8132)">
     <use xlink:href="#C7_0_9c6930ac97" x="214.727865" y="220.395421" style="fill: #2ca02c"/>
    </g>
   </g>
   <g id="PathCollection_16">
    <g clip-path="url(#peee1ac8132)">
     <use xlink:href="#m4cf4415701" x="230.403509" y="163.328546" style="fill: #1f77b4"/>
    </g>
   </g>
   <g id="PathCollection_17">
    <defs>
     <path id="C8_0_b37572e80f" d="M 0 2.5 
C 0.663008 2.5 1.29895 2.236584 1.767767 1.767767 
C 2.236584 1.29895 2.5 0.663008 2.5 -0 
C 2.5 -0.663008 2.236584 -1.29895 1.767767 -1.767767 
C 1.29895 -2.236584 0.663008 -2.5 0 -2.5 
C -0.663008 -2.5 -1.29895 -2.236584 -1.767767 -1.767767 
C -2.236584 -1.29895 -2.5 -0.663008 -2.5 0 
C -2.5 0.663008 -2.236584 1.29895 -1.767767 1.767767 
C -1.29895 2.236584 -0.663008 2.5 0 2.5 
z
"/>
    </defs>
    <g clip-path="url(#peee1ac8132)">
     <use xlink:href="#C8_0_b37572e80f" x="240.042494" y="155.420753" style="fill: #ff7f0e"/>
    </g>
    <g clip-path="url(#peee1ac8132)">
     <use xlink:href="#C8_0_b37572e80f" x="239.51549" y="155.763216" style="fill: #ff7f0e"/>
    </g>
    <g clip-path="url(#peee1ac8132)">
     <use xlink:href="#C8_0_b37572e80f" x="239.263087" y="149.87907" style="fill: #ff7f0e"/>
    </g>
    <g clip-path="url(#peee1ac8132)">
     <use xlink:href="#C8_0_b37572e80f" x="241.219234" y="165.476727" style="fill: #ff7f0e"/>
    </g>
    <g clip-path="url(#peee1ac8132)">
     <use xlink:href="#C8_0_b37572e80f" x="239.848646" y="176.715757" style="fill: #ff7f0e"/>
    </g>
    <g clip-path="url(#peee1ac8132)">
     <use xlink:href="#C8_0_b37572e80f" x="241.006657" y="147.637491" style="fill: #ff7f0e"/>
    </g>
    <g clip-path="url(#peee1ac8132)">
     <use xlink:href="#C8_0_b37572e80f" x="240.93468" y="156.323611" style="fill: #ff7f0e"/>
    </g>
   </g>
   <g id="PathCollection_18">
    <defs>
     <path id="C9_0_bffb18515a" d="M 0 2.5 
C 0.663008 2.5 1.29895 2.236584 1.767767 1.767767 
C 2.236584 1.29895 2.5 0.663008 2.5 -0 
C 2.5 -0.663008 2.236584 -1.29895 1.767767 -1.767767 
C 1.29895 -2.236584 0.663008 -2.5 0 -2.5 
C -0.663008 -2.5 -1.29895 -2.236584 -1.767767 -1.767767 
C -2.236584 -1.29895 -2.5 -0.663008 -2.5 0 
C -2.5 0.663008 -2.236584 1.29895 -1.767767 1.767767 
C -1.29895 2.236584 -0.663008 2.5 0 2.5 
z
"/>
    </defs>
    <g clip-path="url(#peee1ac8132)">
     <use xlink:href="#C9_0_bffb18515a" x="250.474838" y="163.110615" style="fill: #2ca02c"/>
    </g>
    <g clip-path="url(#peee1ac8132)">
     <use xlink:href="#C9_0_bffb18515a" x="248.739724" y="195.800314" style="fill: #2ca02c"/>
    </g>
    <g clip-path="url(#peee1ac8132)">
     <use xlink:href="#C9_0_bffb18515a" x="248.729604" y="196.298443" style="fill: #2ca02c"/>
    </g>
    <g clip-path="url(#peee1ac8132)">
     <use xlink:href="#C9_0_bffb18515a" x="249.128135" y="153.832967" style="fill: #2ca02c"/>
    </g>
    <g clip-path="url(#peee1ac8132)">
     <use xlink:href="#C9_0_bffb18515a" x="250.210784" y="158.876521" style="fill: #2ca02c"/>
    </g>
    <g clip-path="url(#peee1ac8132)">
     <use xlink:href="#C9_0_bffb18515a" x="248.900297" y="165.725791" style="fill: #2ca02c"/>
    </g>
    <g clip-path="url(#peee1ac8132)">
     <use xlink:href="#C9_0_bffb18515a" x="250.27605" y="161.709628" style="fill: #2ca02c"/>
    </g>
   </g>
   <g id="PathCollection_19">
    <g clip-path="url(#peee1ac8132)">
     <use xlink:href="#m4cf4415701" x="266.548387" y="37.519905" style="fill: #1f77b4"/>
    </g>
   </g>
   <g id="PathCollection_20">
    <path d="M 0 386.580698 
C 0.663008 386.580698 1.29895 386.317282 1.767767 385.848465 
C 2.236584 385.379648 2.5 384.743706 2.5 384.080698 
C 2.5 383.41769 2.236584 382.781748 1.767767 382.312931 
C 1.29895 381.844114 0.663008 381.580698 0 381.580698 
C -0.663008 381.580698 -1.29895 381.844114 -1.767767 382.312931 
C -2.236584 382.781748 -2.5 383.41769 -2.5 384.080698 
C -2.5 384.743706 -2.236584 385.379648 -1.767767 385.848465 
C -1.29895 386.317282 -0.663008 386.580698 0 386.580698 
" clip-path="url(#peee1ac8132)" style="fill: none"/>
   </g>
   <g id="PathCollection_21">
    <defs>
     <path id="Ca_0_838d126f3b" d="M 0 2.5 
C 0.663008 2.5 1.29895 2.236584 1.767767 1.767767 
C 2.236584 1.29895 2.5 0.663008 2.5 -0 
C 2.5 -0.663008 2.236584 -1.29895 1.767767 -1.767767 
C 1.29895 -2.236584 0.663008 -2.5 0 -2.5 
C -0.663008 -2.5 -1.29895 -2.236584 -1.767767 -1.767767 
C -2.236584 -1.29895 -2.5 -0.663008 -2.5 0 
C -2.5 0.663008 -2.236584 1.29895 -1.767767 1.767767 
C -1.29895 2.236584 -0.663008 2.5 0 2.5 
z
"/>
    </defs>
    <g clip-path="url(#peee1ac8132)">
     <use xlink:href="#Ca_0_838d126f3b" x="284.741791" y="67.874625" style="fill: #2ca02c"/>
    </g>
    <g clip-path="url(#peee1ac8132)">
     <use xlink:href="#Ca_0_838d126f3b" x="285.486547" y="36.95951" style="fill: #2ca02c"/>
    </g>
    <g clip-path="url(#peee1ac8132)">
     <use xlink:href="#Ca_0_838d126f3b" x="285.93127" y="37.613304" style="fill: #2ca02c"/>
    </g>
    <g clip-path="url(#peee1ac8132)">
     <use xlink:href="#Ca_0_838d126f3b" x="284.891843" y="36.834977" style="fill: #2ca02c"/>
    </g>
    <g clip-path="url(#peee1ac8132)">
     <use xlink:href="#Ca_0_838d126f3b" x="286.672806" y="37.924634" style="fill: #2ca02c"/>
    </g>
    <g clip-path="url(#peee1ac8132)">
     <use xlink:href="#Ca_0_838d126f3b" x="285.285481" y="37.208574" style="fill: #2ca02c"/>
    </g>
    <g clip-path="url(#peee1ac8132)">
     <use xlink:href="#Ca_0_838d126f3b" x="287.024362" y="36.990643" style="fill: #2ca02c"/>
    </g>
   </g>
   <g id="PathCollection_22">
    <g clip-path="url(#peee1ac8132)">
     <use xlink:href="#m4cf4415701" x="302.693265" y="185.713207" style="fill: #1f77b4"/>
    </g>
   </g>
   <g id="PathCollection_23">
    <defs>
     <path id="Cb_0_c1a117cb3b" d="M 0 2.5 
C 0.663008 2.5 1.29895 2.236584 1.767767 1.767767 
C 2.236584 1.29895 2.5 0.663008 2.5 -0 
C 2.5 -0.663008 2.236584 -1.29895 1.767767 -1.767767 
C 1.29895 -2.236584 0.663008 -2.5 0 -2.5 
C -0.663008 -2.5 -1.29895 -2.236584 -1.767767 -1.767767 
C -2.236584 -1.29895 -2.5 -0.663008 -2.5 0 
C -2.5 0.663008 -2.236584 1.29895 -1.767767 1.767767 
C -1.29895 2.236584 -0.663008 2.5 0 2.5 
z
"/>
    </defs>
    <g clip-path="url(#peee1ac8132)">
     <use xlink:href="#Cb_0_c1a117cb3b" x="311.778028" y="111.86562" style="fill: #ff7f0e"/>
    </g>
    <g clip-path="url(#peee1ac8132)">
     <use xlink:href="#Cb_0_c1a117cb3b" x="312.492676" y="147.295027" style="fill: #ff7f0e"/>
    </g>
    <g clip-path="url(#peee1ac8132)">
     <use xlink:href="#Cb_0_c1a117cb3b" x="312.753035" y="84.188342" style="fill: #ff7f0e"/>
    </g>
    <g clip-path="url(#peee1ac8132)">
     <use xlink:href="#Cb_0_c1a117cb3b" x="311.656054" y="84.157209" style="fill: #ff7f0e"/>
    </g>
    <g clip-path="url(#peee1ac8132)">
     <use xlink:href="#Cb_0_c1a117cb3b" x="312.660949" y="183.284829" style="fill: #ff7f0e"/>
    </g>
    <g clip-path="url(#peee1ac8132)">
     <use xlink:href="#Cb_0_c1a117cb3b" x="312.845919" y="187.487791" style="fill: #ff7f0e"/>
    </g>
    <g clip-path="url(#peee1ac8132)">
     <use xlink:href="#Cb_0_c1a117cb3b" x="312.522373" y="95.022642" style="fill: #ff7f0e"/>
    </g>
   </g>
   <g id="PathCollection_24">
    <path d="M 0 386.580698 
C 0.663008 386.580698 1.29895 386.317282 1.767767 385.848465 
C 2.236584 385.379648 2.5 384.743706 2.5 384.080698 
C 2.5 383.41769 2.236584 382.781748 1.767767 382.312931 
C 1.29895 381.844114 0.663008 381.580698 0 381.580698 
C -0.663008 381.580698 -1.29895 381.844114 -1.767767 382.312931 
C -2.236584 382.781748 -2.5 383.41769 -2.5 384.080698 
C -2.5 384.743706 -2.236584 385.379648 -1.767767 385.848465 
C -1.29895 386.317282 -0.663008 386.580698 0 386.580698 
" clip-path="url(#peee1ac8132)" style="fill: none"/>
   </g>
   <g id="PathCollection_25">
    <g clip-path="url(#peee1ac8132)">
     <use xlink:href="#m4cf4415701" x="338.838144" y="228.583412" style="fill: #1f77b4"/>
    </g>
   </g>
   <g id="PathCollection_26">
    <defs>
     <path id="Cc_0_784edfbcff" d="M 0 2.5 
C 0.663008 2.5 1.29895 2.236584 1.767767 1.767767 
C 2.236584 1.29895 2.5 0.663008 2.5 -0 
C 2.5 -0.663008 2.236584 -1.29895 1.767767 -1.767767 
C 1.29895 -2.236584 0.663008 -2.5 0 -2.5 
C -0.663008 -2.5 -1.29895 -2.236584 -1.767767 -1.767767 
C -2.236584 -1.29895 -2.5 -0.663008 -2.5 0 
C -2.5 0.663008 -2.236584 1.29895 -1.767767 1.767767 
C -1.29895 2.236584 -0.663008 2.5 0 2.5 
z
"/>
    </defs>
    <g clip-path="url(#peee1ac8132)">
     <use xlink:href="#Cc_0_784edfbcff" x="349.622329" y="284.218167" style="fill: #ff7f0e"/>
    </g>
    <g clip-path="url(#peee1ac8132)">
     <use xlink:href="#Cc_0_784edfbcff" x="349.500107" y="252.026597" style="fill: #ff7f0e"/>
    </g>
    <g clip-path="url(#peee1ac8132)">
     <use xlink:href="#Cc_0_784edfbcff" x="349.137733" y="273.259335" style="fill: #ff7f0e"/>
    </g>
    <g clip-path="url(#peee1ac8132)">
     <use xlink:href="#Cc_0_784edfbcff" x="348.606716" y="282.786047" style="fill: #ff7f0e"/>
    </g>
    <g clip-path="url(#peee1ac8132)">
     <use xlink:href="#Cc_0_784edfbcff" x="348.735868" y="270.799824" style="fill: #ff7f0e"/>
    </g>
    <g clip-path="url(#peee1ac8132)">
     <use xlink:href="#Cc_0_784edfbcff" x="348.021672" y="283.564373" style="fill: #ff7f0e"/>
    </g>
    <g clip-path="url(#peee1ac8132)">
     <use xlink:href="#Cc_0_784edfbcff" x="349.644348" y="264.448682" style="fill: #ff7f0e"/>
    </g>
   </g>
   <g id="PathCollection_27">
    <defs>
     <path id="Cd_0_31a1666add" d="M 0 2.5 
C 0.663008 2.5 1.29895 2.236584 1.767767 1.767767 
C 2.236584 1.29895 2.5 0.663008 2.5 -0 
C 2.5 -0.663008 2.236584 -1.29895 1.767767 -1.767767 
C 1.29895 -2.236584 0.663008 -2.5 0 -2.5 
C -0.663008 -2.5 -1.29895 -2.236584 -1.767767 -1.767767 
C -2.236584 -1.29895 -2.5 -0.663008 -2.5 0 
C -2.5 0.663008 -2.236584 1.29895 -1.767767 1.767767 
C -1.29895 2.236584 -0.663008 2.5 0 2.5 
z
"/>
    </defs>
    <g clip-path="url(#peee1ac8132)">
     <use xlink:href="#Cd_0_31a1666add" x="357.176773" y="281.291661" style="fill: #2ca02c"/>
    </g>
    <g clip-path="url(#peee1ac8132)">
     <use xlink:href="#Cd_0_31a1666add" x="357.978818" y="271.702682" style="fill: #2ca02c"/>
    </g>
    <g clip-path="url(#peee1ac8132)">
     <use xlink:href="#Cd_0_31a1666add" x="358.301526" y="233.066571" style="fill: #2ca02c"/>
    </g>
    <g clip-path="url(#peee1ac8132)">
     <use xlink:href="#Cd_0_31a1666add" x="358.356864" y="280.606734" style="fill: #2ca02c"/>
    </g>
    <g clip-path="url(#peee1ac8132)">
     <use xlink:href="#Cd_0_31a1666add" x="358.442579" y="277.586828" style="fill: #2ca02c"/>
    </g>
    <g clip-path="url(#peee1ac8132)">
     <use xlink:href="#Cd_0_31a1666add" x="358.004794" y="234.343026" style="fill: #2ca02c"/>
    </g>
    <g clip-path="url(#peee1ac8132)">
     <use xlink:href="#Cd_0_31a1666add" x="357.262245" y="265.507206" style="fill: #2ca02c"/>
    </g>
   </g>
   <g id="text_17">
    <!-- architecture = LSTM -->
    <g style="fill: #262626" transform="translate(158.743359 14.357812) scale(0.1 -0.1)">
     <defs>
      <path id="ArialMT-61" d="M 2588 409 
Q 2275 144 1986 34 
Q 1697 -75 1366 -75 
Q 819 -75 525 192 
Q 231 459 231 875 
Q 231 1119 342 1320 
Q 453 1522 633 1644 
Q 813 1766 1038 1828 
Q 1203 1872 1538 1913 
Q 2219 1994 2541 2106 
Q 2544 2222 2544 2253 
Q 2544 2597 2384 2738 
Q 2169 2928 1744 2928 
Q 1347 2928 1158 2789 
Q 969 2650 878 2297 
L 328 2372 
Q 403 2725 575 2942 
Q 747 3159 1072 3276 
Q 1397 3394 1825 3394 
Q 2250 3394 2515 3294 
Q 2781 3194 2906 3042 
Q 3031 2891 3081 2659 
Q 3109 2516 3109 2141 
L 3109 1391 
Q 3109 606 3145 398 
Q 3181 191 3288 0 
L 2700 0 
Q 2613 175 2588 409 
z
M 2541 1666 
Q 2234 1541 1622 1453 
Q 1275 1403 1131 1340 
Q 988 1278 909 1158 
Q 831 1038 831 891 
Q 831 666 1001 516 
Q 1172 366 1500 366 
Q 1825 366 2078 508 
Q 2331 650 2450 897 
Q 2541 1088 2541 1459 
L 2541 1666 
z
" transform="scale(0.015625)"/>
      <path id="ArialMT-72" d="M 416 0 
L 416 3319 
L 922 3319 
L 922 2816 
Q 1116 3169 1280 3281 
Q 1444 3394 1641 3394 
Q 1925 3394 2219 3213 
L 2025 2691 
Q 1819 2813 1613 2813 
Q 1428 2813 1281 2702 
Q 1134 2591 1072 2394 
Q 978 2094 978 1738 
L 978 0 
L 416 0 
z
" transform="scale(0.015625)"/>
      <path id="ArialMT-68" d="M 422 0 
L 422 4581 
L 984 4581 
L 984 2938 
Q 1378 3394 1978 3394 
Q 2347 3394 2619 3248 
Q 2891 3103 3008 2847 
Q 3125 2591 3125 2103 
L 3125 0 
L 2563 0 
L 2563 2103 
Q 2563 2525 2380 2717 
Q 2197 2909 1863 2909 
Q 1613 2909 1392 2779 
Q 1172 2650 1078 2428 
Q 984 2206 984 1816 
L 984 0 
L 422 0 
z
" transform="scale(0.015625)"/>
      <path id="ArialMT-75" d="M 2597 0 
L 2597 488 
Q 2209 -75 1544 -75 
Q 1250 -75 995 37 
Q 741 150 617 320 
Q 494 491 444 738 
Q 409 903 409 1263 
L 409 3319 
L 972 3319 
L 972 1478 
Q 972 1038 1006 884 
Q 1059 663 1231 536 
Q 1403 409 1656 409 
Q 1909 409 2131 539 
Q 2353 669 2445 892 
Q 2538 1116 2538 1541 
L 2538 3319 
L 3100 3319 
L 3100 0 
L 2597 0 
z
" transform="scale(0.015625)"/>
      <path id="ArialMT-3d" d="M 3381 2694 
L 356 2694 
L 356 3219 
L 3381 3219 
L 3381 2694 
z
M 3381 1303 
L 356 1303 
L 356 1828 
L 3381 1828 
L 3381 1303 
z
" transform="scale(0.015625)"/>
      <path id="ArialMT-4c" d="M 469 0 
L 469 4581 
L 1075 4581 
L 1075 541 
L 3331 541 
L 3331 0 
L 469 0 
z
" transform="scale(0.015625)"/>
     </defs>
     <use xlink:href="#ArialMT-61"/>
     <use xlink:href="#ArialMT-72" x="55.615234"/>
     <use xlink:href="#ArialMT-63" x="88.916016"/>
     <use xlink:href="#ArialMT-68" x="138.916016"/>
     <use xlink:href="#ArialMT-69" x="194.53125"/>
     <use xlink:href="#ArialMT-74" x="216.748047"/>
     <use xlink:href="#ArialMT-65" x="244.53125"/>
     <use xlink:href="#ArialMT-63" x="300.146484"/>
     <use xlink:href="#ArialMT-74" x="350.146484"/>
     <use xlink:href="#ArialMT-75" x="377.929688"/>
     <use xlink:href="#ArialMT-72" x="433.544922"/>
     <use xlink:href="#ArialMT-65" x="466.845703"/>
     <use xlink:href="#ArialMT-20" x="522.460938"/>
     <use xlink:href="#ArialMT-3d" x="550.244141"/>
     <use xlink:href="#ArialMT-20" x="608.642578"/>
     <use xlink:href="#ArialMT-4c" x="636.425781"/>
     <use xlink:href="#ArialMT-53" x="692.041016"/>
     <use xlink:href="#ArialMT-54" x="758.740234"/>
     <use xlink:href="#ArialMT-4d" x="819.824219"/>
    </g>
   </g>
  </g>
  <g id="axes_2">
   <g id="patch_5">
    <path d="M 377.316743 313.677812 
L 702.620648 313.677812 
L 702.620648 20.357812 
L 377.316743 20.357812 
z
" style="fill: #eaeaf2"/>
   </g>
   <g id="matplotlib.axis_3">
    <g id="xtick_10">
     <g id="text_18">
      <!-- BPI17 -->
      <g style="fill: #262626" transform="translate(370.804359 340.496972) rotate(-30) scale(0.1 -0.1)">
       <use xlink:href="#ArialMT-42"/>
       <use xlink:href="#ArialMT-50" x="66.699219"/>
       <use xlink:href="#ArialMT-49" x="133.398438"/>
       <use xlink:href="#ArialMT-31" x="161.181641"/>
       <use xlink:href="#ArialMT-37" x="216.796875"/>
      </g>
     </g>
    </g>
    <g id="xtick_11">
     <g id="text_19">
      <!-- BPI15 -->
      <g style="fill: #262626" transform="translate(406.949237 340.496972) rotate(-30) scale(0.1 -0.1)">
       <use xlink:href="#ArialMT-42"/>
       <use xlink:href="#ArialMT-50" x="66.699219"/>
       <use xlink:href="#ArialMT-49" x="133.398438"/>
       <use xlink:href="#ArialMT-31" x="161.181641"/>
       <use xlink:href="#ArialMT-35" x="216.796875"/>
      </g>
     </g>
    </g>
    <g id="xtick_12">
     <g id="text_20">
      <!-- BPI12 -->
      <g style="fill: #262626" transform="translate(443.094115 340.496972) rotate(-30) scale(0.1 -0.1)">
       <use xlink:href="#ArialMT-42"/>
       <use xlink:href="#ArialMT-50" x="66.699219"/>
       <use xlink:href="#ArialMT-49" x="133.398438"/>
       <use xlink:href="#ArialMT-31" x="161.181641"/>
       <use xlink:href="#ArialMT-32" x="216.796875"/>
      </g>
     </g>
    </g>
    <g id="xtick_13">
     <g id="text_21">
      <!-- BPI13 Closed -->
      <g style="fill: #262626" transform="translate(449.876673 357.449316) rotate(-30) scale(0.1 -0.1)">
       <use xlink:href="#ArialMT-42"/>
       <use xlink:href="#ArialMT-50" x="66.699219"/>
       <use xlink:href="#ArialMT-49" x="133.398438"/>
       <use xlink:href="#ArialMT-31" x="161.181641"/>
       <use xlink:href="#ArialMT-33" x="216.796875"/>
       <use xlink:href="#ArialMT-20" x="272.412109"/>
       <use xlink:href="#ArialMT-43" x="300.195312"/>
       <use xlink:href="#ArialMT-6c" x="372.412109"/>
       <use xlink:href="#ArialMT-6f" x="394.628906"/>
       <use xlink:href="#ArialMT-73" x="450.244141"/>
       <use xlink:href="#ArialMT-65" x="500.244141"/>
       <use xlink:href="#ArialMT-64" x="555.859375"/>
      </g>
     </g>
    </g>
    <g id="xtick_14">
     <g id="text_22">
      <!-- BPI13 Incidents -->
      <g style="fill: #262626" transform="translate(478.317985 361.896972) rotate(-30) scale(0.1 -0.1)">
       <use xlink:href="#ArialMT-42"/>
       <use xlink:href="#ArialMT-50" x="66.699219"/>
       <use xlink:href="#ArialMT-49" x="133.398438"/>
       <use xlink:href="#ArialMT-31" x="161.181641"/>
       <use xlink:href="#ArialMT-33" x="216.796875"/>
       <use xlink:href="#ArialMT-20" x="272.412109"/>
       <use xlink:href="#ArialMT-49" x="300.195312"/>
       <use xlink:href="#ArialMT-6e" x="327.978516"/>
       <use xlink:href="#ArialMT-63" x="383.59375"/>
       <use xlink:href="#ArialMT-69" x="433.59375"/>
       <use xlink:href="#ArialMT-64" x="455.810547"/>
       <use xlink:href="#ArialMT-65" x="511.425781"/>
       <use xlink:href="#ArialMT-6e" x="567.041016"/>
       <use xlink:href="#ArialMT-74" x="622.65625"/>
       <use xlink:href="#ArialMT-73" x="650.439453"/>
      </g>
     </g>
    </g>
    <g id="xtick_15">
     <g id="text_23">
      <!-- BPI13 Open -->
      <g style="fill: #262626" transform="translate(527.93903 354.227463) rotate(-30) scale(0.1 -0.1)">
       <use xlink:href="#ArialMT-42"/>
       <use xlink:href="#ArialMT-50" x="66.699219"/>
       <use xlink:href="#ArialMT-49" x="133.398438"/>
       <use xlink:href="#ArialMT-31" x="161.181641"/>
       <use xlink:href="#ArialMT-33" x="216.796875"/>
       <use xlink:href="#ArialMT-20" x="272.412109"/>
       <use xlink:href="#ArialMT-4f" x="300.195312"/>
       <use xlink:href="#ArialMT-70" x="377.978516"/>
       <use xlink:href="#ArialMT-65" x="433.59375"/>
       <use xlink:href="#ArialMT-6e" x="489.208984"/>
      </g>
     </g>
    </g>
    <g id="xtick_16">
     <g id="text_24">
      <!-- Helpdesk -->
      <g style="fill: #262626" transform="translate(575.162268 347.72041) rotate(-30) scale(0.1 -0.1)">
       <use xlink:href="#ArialMT-48"/>
       <use xlink:href="#ArialMT-65" x="72.216797"/>
       <use xlink:href="#ArialMT-6c" x="127.832031"/>
       <use xlink:href="#ArialMT-70" x="150.048828"/>
       <use xlink:href="#ArialMT-64" x="205.664062"/>
       <use xlink:href="#ArialMT-65" x="261.279297"/>
       <use xlink:href="#ArialMT-73" x="316.894531"/>
       <use xlink:href="#ArialMT-6b" x="366.894531"/>
      </g>
     </g>
    </g>
    <g id="xtick_17">
     <g id="text_25">
      <!-- RTFMP -->
      <g style="fill: #262626" transform="translate(617.737385 344.00791) rotate(-30) scale(0.1 -0.1)">
       <use xlink:href="#ArialMT-52"/>
       <use xlink:href="#ArialMT-54" x="70.466797"/>
       <use xlink:href="#ArialMT-46" x="131.550781"/>
       <use xlink:href="#ArialMT-4d" x="192.634766"/>
       <use xlink:href="#ArialMT-50" x="275.935547"/>
      </g>
     </g>
    </g>
    <g id="xtick_18">
     <g id="text_26">
      <!-- Sepsis -->
      <g style="fill: #262626" transform="translate(657.561518 341.989238) rotate(-30) scale(0.1 -0.1)">
       <use xlink:href="#ArialMT-53"/>
       <use xlink:href="#ArialMT-65" x="66.699219"/>
       <use xlink:href="#ArialMT-70" x="122.314453"/>
       <use xlink:href="#ArialMT-73" x="177.929688"/>
       <use xlink:href="#ArialMT-69" x="227.929688"/>
       <use xlink:href="#ArialMT-73" x="250.146484"/>
      </g>
     </g>
    </g>
    <g id="text_27">
     <!-- log -->
     <g style="fill: #262626" transform="translate(533.29682 374.77601) scale(0.1 -0.1)">
      <use xlink:href="#ArialMT-6c"/>
      <use xlink:href="#ArialMT-6f" x="22.216797"/>
      <use xlink:href="#ArialMT-67" x="77.832031"/>
     </g>
    </g>
   </g>
   <g id="matplotlib.axis_4">
    <g id="ytick_6">
     <g id="line2d_9">
      <path d="M 377.316743 301.403609 
L 702.620648 301.403609 
" clip-path="url(#p9cdcd51b1b)" style="fill: none; stroke: #ffffff; stroke-width: 0.8; stroke-linecap: round"/>
     </g>
    </g>
    <g id="ytick_7">
     <g id="line2d_10">
      <path d="M 377.316743 239.137515 
L 702.620648 239.137515 
" clip-path="url(#p9cdcd51b1b)" style="fill: none; stroke: #ffffff; stroke-width: 0.8; stroke-linecap: round"/>
     </g>
    </g>
    <g id="ytick_8">
     <g id="line2d_11">
      <path d="M 377.316743 176.871422 
L 702.620648 176.871422 
" clip-path="url(#p9cdcd51b1b)" style="fill: none; stroke: #ffffff; stroke-width: 0.8; stroke-linecap: round"/>
     </g>
    </g>
    <g id="ytick_9">
     <g id="line2d_12">
      <path d="M 377.316743 114.605328 
L 702.620648 114.605328 
" clip-path="url(#p9cdcd51b1b)" style="fill: none; stroke: #ffffff; stroke-width: 0.8; stroke-linecap: round"/>
     </g>
    </g>
    <g id="ytick_10">
     <g id="line2d_13">
      <path d="M 377.316743 52.339235 
L 702.620648 52.339235 
" clip-path="url(#p9cdcd51b1b)" style="fill: none; stroke: #ffffff; stroke-width: 0.8; stroke-linecap: round"/>
     </g>
    </g>
   </g>
   <g id="line2d_14">
    <g clip-path="url(#p9cdcd51b1b)">
     <use xlink:href="#m4254db318e" x="386.352962" y="256.945618" style="fill: #1f77b4; stroke: #1f77b4; stroke-width: 2.025"/>
     <use xlink:href="#m4254db318e" x="422.497841" y="221.889807" style="fill: #1f77b4; stroke: #1f77b4; stroke-width: 2.025"/>
     <use xlink:href="#m4254db318e" x="458.642719" y="251.403936" style="fill: #1f77b4; stroke: #1f77b4; stroke-width: 2.025"/>
     <use xlink:href="#m4254db318e" x="494.787597" y="154.704693" style="fill: #1f77b4; stroke: #1f77b4; stroke-width: 2.025"/>
     <use xlink:href="#m4254db318e" x="530.932476" y="225.28331" style="fill: #1f77b4; stroke: #1f77b4; stroke-width: 2.025"/>
     <use xlink:href="#m4254db318e" x="567.077354" y="193.994598" style="fill: #1f77b4; stroke: #1f77b4; stroke-width: 2.025"/>
     <use xlink:href="#m4254db318e" x="603.222232" y="37.426505" style="fill: #1f77b4; stroke: #1f77b4; stroke-width: 2.025"/>
     <use xlink:href="#m4254db318e" x="639.36711" y="44.555973" style="fill: #1f77b4; stroke: #1f77b4; stroke-width: 2.025"/>
     <use xlink:href="#m4254db318e" x="675.511989" y="274.13106" style="fill: #1f77b4; stroke: #1f77b4; stroke-width: 2.025"/>
    </g>
   </g>
   <g id="line2d_15">
    <g clip-path="url(#p9cdcd51b1b)">
     <use xlink:href="#mbc9b81eb4a" x="395.389182" y="257.07015" style="fill: #ff7f0e; stroke: #ff7f0e; stroke-width: 2.025"/>
     <use xlink:href="#mbc9b81eb4a" x="431.53406" y="294.77227" style="fill: #ff7f0e; stroke: #ff7f0e; stroke-width: 2.025"/>
     <use xlink:href="#mbc9b81eb4a" x="467.678939" y="252.026597" style="fill: #ff7f0e; stroke: #ff7f0e; stroke-width: 2.025"/>
     <use xlink:href="#mbc9b81eb4a" x="503.823817" y="88.142239" style="fill: #ff7f0e; stroke: #ff7f0e; stroke-width: 2.025"/>
     <use xlink:href="#mbc9b81eb4a" x="539.968695" y="205.451559" style="fill: #ff7f0e; stroke: #ff7f0e; stroke-width: 2.025"/>
     <use xlink:href="#mbc9b81eb4a" x="576.113573" y="140.850487" style="fill: #ff7f0e; stroke: #ff7f0e; stroke-width: 2.025"/>
     <use xlink:href="#mbc9b81eb4a" x="648.40333" y="43.777647" style="fill: #ff7f0e; stroke: #ff7f0e; stroke-width: 2.025"/>
     <use xlink:href="#mbc9b81eb4a" x="684.548208" y="268.962974" style="fill: #ff7f0e; stroke: #ff7f0e; stroke-width: 2.025"/>
    </g>
   </g>
   <g id="line2d_16">
    <g clip-path="url(#p9cdcd51b1b)">
     <use xlink:href="#ma06210c62e" x="404.425402" y="257.101283" style="fill: #2ca02c; stroke: #2ca02c; stroke-width: 2.025"/>
     <use xlink:href="#ma06210c62e" x="440.57028" y="296.142124" style="fill: #2ca02c; stroke: #2ca02c; stroke-width: 2.025"/>
     <use xlink:href="#ma06210c62e" x="476.715158" y="254.423841" style="fill: #2ca02c; stroke: #2ca02c; stroke-width: 2.025"/>
     <use xlink:href="#ma06210c62e" x="512.860036" y="74.474831" style="fill: #2ca02c; stroke: #2ca02c; stroke-width: 2.025"/>
     <use xlink:href="#ma06210c62e" x="549.004915" y="207.350675" style="fill: #2ca02c; stroke: #2ca02c; stroke-width: 2.025"/>
     <use xlink:href="#ma06210c62e" x="585.149793" y="171.547671" style="fill: #2ca02c; stroke: #2ca02c; stroke-width: 2.025"/>
     <use xlink:href="#ma06210c62e" x="621.294671" y="37.613304" style="fill: #2ca02c; stroke: #2ca02c; stroke-width: 2.025"/>
     <use xlink:href="#ma06210c62e" x="693.584428" y="269.336571" style="fill: #2ca02c; stroke: #2ca02c; stroke-width: 2.025"/>
    </g>
   </g>
   <g id="patch_6">
    <path d="M 377.316743 313.677812 
L 377.316743 20.357812 
" style="fill: none; stroke: #ffffff; stroke-width: 0.8; stroke-linejoin: miter; stroke-linecap: square"/>
   </g>
   <g id="patch_7">
    <path d="M 377.316743 313.677812 
L 702.620648 313.677812 
" style="fill: none; stroke: #ffffff; stroke-width: 0.8; stroke-linejoin: miter; stroke-linecap: square"/>
   </g>
   <g id="PathCollection_28">
    <path d="M 0 386.580698 
C 0.663008 386.580698 1.29895 386.317282 1.767767 385.848465 
C 2.236584 385.379648 2.5 384.743706 2.5 384.080698 
C 2.5 383.41769 2.236584 382.781748 1.767767 382.312931 
C 1.29895 381.844114 0.663008 381.580698 0 381.580698 
C -0.663008 381.580698 -1.29895 381.844114 -1.767767 382.312931 
C -2.236584 382.781748 -2.5 383.41769 -2.5 384.080698 
C -2.5 384.743706 -2.236584 385.379648 -1.767767 385.848465 
C -1.29895 386.317282 -0.663008 386.580698 0 386.580698 
" clip-path="url(#p9cdcd51b1b)" style="fill: none"/>
   </g>
   <g id="PathCollection_29">
    <path d="M 0 386.580698 
C 0.663008 386.580698 1.29895 386.317282 1.767767 385.848465 
C 2.236584 385.379648 2.5 384.743706 2.5 384.080698 
C 2.5 383.41769 2.236584 382.781748 1.767767 382.312931 
C 1.29895 381.844114 0.663008 381.580698 0 381.580698 
C -0.663008 381.580698 -1.29895 381.844114 -1.767767 382.312931 
C -2.236584 382.781748 -2.5 383.41769 -2.5 384.080698 
C -2.5 384.743706 -2.236584 385.379648 -1.767767 385.848465 
C -1.29895 386.317282 -0.663008 386.580698 0 386.580698 
" clip-path="url(#p9cdcd51b1b)" style="fill: none"/>
   </g>
   <g id="PathCollection_30">
    <path d="M 0 386.580698 
C 0.663008 386.580698 1.29895 386.317282 1.767767 385.848465 
C 2.236584 385.379648 2.5 384.743706 2.5 384.080698 
C 2.5 383.41769 2.236584 382.781748 1.767767 382.312931 
C 1.29895 381.844114 0.663008 381.580698 0 381.580698 
C -0.663008 381.580698 -1.29895 381.844114 -1.767767 382.312931 
C -2.236584 382.781748 -2.5 383.41769 -2.5 384.080698 
C -2.5 384.743706 -2.236584 385.379648 -1.767767 385.848465 
C -1.29895 386.317282 -0.663008 386.580698 0 386.580698 
" clip-path="url(#p9cdcd51b1b)" style="fill: none"/>
   </g>
   <g id="PathCollection_31">
    <g clip-path="url(#p9cdcd51b1b)">
     <use xlink:href="#m4cf4415701" x="421.895426" y="254.112511" style="fill: #1f77b4"/>
    </g>
   </g>
   <g id="PathCollection_32">
    <defs>
     <path id="Ce_0_06aff6b8ca" d="M 0 2.5 
C 0.663008 2.5 1.29895 2.236584 1.767767 1.767767 
C 2.236584 1.29895 2.5 0.663008 2.5 -0 
C 2.5 -0.663008 2.236584 -1.29895 1.767767 -1.767767 
C 1.29895 -2.236584 0.663008 -2.5 0 -2.5 
C -0.663008 -2.5 -1.29895 -2.236584 -1.767767 -1.767767 
C -2.236584 -1.29895 -2.5 -0.663008 -2.5 0 
C -2.5 0.663008 -2.236584 1.29895 -1.767767 1.767767 
C -1.29895 2.236584 -0.663008 2.5 0 2.5 
z
"/>
    </defs>
    <g clip-path="url(#p9cdcd51b1b)">
     <use xlink:href="#Ce_0_06aff6b8ca" x="432.594675" y="296.671386" style="fill: #ff7f0e"/>
    </g>
    <g clip-path="url(#p9cdcd51b1b)">
     <use xlink:href="#Ce_0_06aff6b8ca" x="431.391213" y="295.270399" style="fill: #ff7f0e"/>
    </g>
    <g clip-path="url(#p9cdcd51b1b)">
     <use xlink:href="#Ce_0_06aff6b8ca" x="430.365389" y="297.667643" style="fill: #ff7f0e"/>
    </g>
    <g clip-path="url(#p9cdcd51b1b)">
     <use xlink:href="#Ce_0_06aff6b8ca" x="430.730423" y="295.457197" style="fill: #ff7f0e"/>
    </g>
    <g clip-path="url(#p9cdcd51b1b)">
     <use xlink:href="#Ce_0_06aff6b8ca" x="430.362676" y="294.554339" style="fill: #ff7f0e"/>
    </g>
    <g clip-path="url(#p9cdcd51b1b)">
     <use xlink:href="#Ce_0_06aff6b8ca" x="430.9145" y="298.601635" style="fill: #ff7f0e"/>
    </g>
    <g clip-path="url(#p9cdcd51b1b)">
     <use xlink:href="#Ce_0_06aff6b8ca" x="430.477624" y="287.393738" style="fill: #ff7f0e"/>
    </g>
   </g>
   <g id="PathCollection_33">
    <defs>
     <path id="Cf_0_1a1f5598d2" d="M 0 2.5 
C 0.663008 2.5 1.29895 2.236584 1.767767 1.767767 
C 2.236584 1.29895 2.5 0.663008 2.5 -0 
C 2.5 -0.663008 2.236584 -1.29895 1.767767 -1.767767 
C 1.29895 -2.236584 0.663008 -2.5 0 -2.5 
C -0.663008 -2.5 -1.29895 -2.236584 -1.767767 -1.767767 
C -2.236584 -1.29895 -2.5 -0.663008 -2.5 0 
C -2.5 0.663008 -2.236584 1.29895 -1.767767 1.767767 
C -1.29895 2.236584 -0.663008 2.5 0 2.5 
z
"/>
    </defs>
    <g clip-path="url(#p9cdcd51b1b)">
     <use xlink:href="#Cf_0_1a1f5598d2" x="440.848989" y="296.858184" style="fill: #2ca02c"/>
    </g>
    <g clip-path="url(#p9cdcd51b1b)">
     <use xlink:href="#Cf_0_1a1f5598d2" x="441.639558" y="297.729909" style="fill: #2ca02c"/>
    </g>
    <g clip-path="url(#p9cdcd51b1b)">
     <use xlink:href="#Cf_0_1a1f5598d2" x="441.421556" y="299.130896" style="fill: #2ca02c"/>
    </g>
    <g clip-path="url(#p9cdcd51b1b)">
     <use xlink:href="#Cf_0_1a1f5598d2" x="440.92591" y="297.107248" style="fill: #2ca02c"/>
    </g>
    <g clip-path="url(#p9cdcd51b1b)">
     <use xlink:href="#Cf_0_1a1f5598d2" x="441.28153" y="300.345085" style="fill: #2ca02c"/>
    </g>
    <g clip-path="url(#p9cdcd51b1b)">
     <use xlink:href="#Cf_0_1a1f5598d2" x="441.38218" y="299.255429" style="fill: #2ca02c"/>
    </g>
    <g clip-path="url(#p9cdcd51b1b)">
     <use xlink:href="#Cf_0_1a1f5598d2" x="441.464342" y="299.442227" style="fill: #2ca02c"/>
    </g>
   </g>
   <g id="PathCollection_34">
    <g clip-path="url(#p9cdcd51b1b)">
     <use xlink:href="#m4cf4415701" x="458.040304" y="250.127481" style="fill: #1f77b4"/>
    </g>
   </g>
   <g id="PathCollection_35">
    <path d="M 0 386.580698 
C 0.663008 386.580698 1.29895 386.317282 1.767767 385.848465 
C 2.236584 385.379648 2.5 384.743706 2.5 384.080698 
C 2.5 383.41769 2.236584 382.781748 1.767767 382.312931 
C 1.29895 381.844114 0.663008 381.580698 0 381.580698 
C -0.663008 381.580698 -1.29895 381.844114 -1.767767 382.312931 
C -2.236584 382.781748 -2.5 383.41769 -2.5 384.080698 
C -2.5 384.743706 -2.236584 385.379648 -1.767767 385.848465 
C -1.29895 386.317282 -0.663008 386.580698 0 386.580698 
" clip-path="url(#p9cdcd51b1b)" style="fill: none"/>
   </g>
   <g id="PathCollection_36">
    <path d="M 0 386.580698 
C 0.663008 386.580698 1.29895 386.317282 1.767767 385.848465 
C 2.236584 385.379648 2.5 384.743706 2.5 384.080698 
C 2.5 383.41769 2.236584 382.781748 1.767767 382.312931 
C 1.29895 381.844114 0.663008 381.580698 0 381.580698 
C -0.663008 381.580698 -1.29895 381.844114 -1.767767 382.312931 
C -2.236584 382.781748 -2.5 383.41769 -2.5 384.080698 
C -2.5 384.743706 -2.236584 385.379648 -1.767767 385.848465 
C -1.29895 386.317282 -0.663008 386.580698 0 386.580698 
" clip-path="url(#p9cdcd51b1b)" style="fill: none"/>
   </g>
   <g id="PathCollection_37">
    <g clip-path="url(#p9cdcd51b1b)">
     <use xlink:href="#m4cf4415701" x="494.185183" y="153.303705" style="fill: #1f77b4"/>
    </g>
   </g>
   <g id="PathCollection_38">
    <defs>
     <path id="C10_0_6d05154b51" d="M 0 2.5 
C 0.663008 2.5 1.29895 2.236584 1.767767 1.767767 
C 2.236584 1.29895 2.5 0.663008 2.5 -0 
C 2.5 -0.663008 2.236584 -1.29895 1.767767 -1.767767 
C 1.29895 -2.236584 0.663008 -2.5 0 -2.5 
C -0.663008 -2.5 -1.29895 -2.236584 -1.767767 -1.767767 
C -2.236584 -1.29895 -2.5 -0.663008 -2.5 0 
C -2.5 0.663008 -2.236584 1.29895 -1.767767 1.767767 
C -1.29895 2.236584 -0.663008 2.5 0 2.5 
z
"/>
    </defs>
    <g clip-path="url(#p9cdcd51b1b)">
     <use xlink:href="#C10_0_6d05154b51" x="503.790078" y="127.369877" style="fill: #ff7f0e"/>
    </g>
    <g clip-path="url(#p9cdcd51b1b)">
     <use xlink:href="#C10_0_6d05154b51" x="502.772652" y="117.936564" style="fill: #ff7f0e"/>
    </g>
    <g clip-path="url(#p9cdcd51b1b)">
     <use xlink:href="#C10_0_6d05154b51" x="504.77878" y="149.256409" style="fill: #ff7f0e"/>
    </g>
    <g clip-path="url(#p9cdcd51b1b)">
     <use xlink:href="#C10_0_6d05154b51" x="504.581878" y="156.946272" style="fill: #ff7f0e"/>
    </g>
    <g clip-path="url(#p9cdcd51b1b)">
     <use xlink:href="#C10_0_6d05154b51" x="502.91602" y="140.88162" style="fill: #ff7f0e"/>
    </g>
    <g clip-path="url(#p9cdcd51b1b)">
     <use xlink:href="#C10_0_6d05154b51" x="504.25831" y="88.048839" style="fill: #ff7f0e"/>
    </g>
    <g clip-path="url(#p9cdcd51b1b)">
     <use xlink:href="#C10_0_6d05154b51" x="503.120854" y="91.94047" style="fill: #ff7f0e"/>
    </g>
   </g>
   <g id="PathCollection_39">
    <defs>
     <path id="C11_0_e48da749b6" d="M 0 2.5 
C 0.663008 2.5 1.29895 2.236584 1.767767 1.767767 
C 2.236584 1.29895 2.5 0.663008 2.5 -0 
C 2.5 -0.663008 2.236584 -1.29895 1.767767 -1.767767 
C 1.29895 -2.236584 0.663008 -2.5 0 -2.5 
C -0.663008 -2.5 -1.29895 -2.236584 -1.767767 -1.767767 
C -2.236584 -1.29895 -2.5 -0.663008 -2.5 0 
C -2.5 0.663008 -2.236584 1.29895 -1.767767 1.767767 
C -1.29895 2.236584 -0.663008 2.5 0 2.5 
z
"/>
    </defs>
    <g clip-path="url(#p9cdcd51b1b)">
     <use xlink:href="#C11_0_e48da749b6" x="513.969439" y="100.128462" style="fill: #2ca02c"/>
    </g>
    <g clip-path="url(#p9cdcd51b1b)">
     <use xlink:href="#C11_0_e48da749b6" x="514.550459" y="99.91053" style="fill: #2ca02c"/>
    </g>
    <g clip-path="url(#p9cdcd51b1b)">
     <use xlink:href="#C11_0_e48da749b6" x="512.546224" y="113.048676" style="fill: #2ca02c"/>
    </g>
    <g clip-path="url(#p9cdcd51b1b)">
     <use xlink:href="#C11_0_e48da749b6" x="514.630874" y="86.865784" style="fill: #2ca02c"/>
    </g>
    <g clip-path="url(#p9cdcd51b1b)">
     <use xlink:href="#C11_0_e48da749b6" x="512.358594" y="76.156016" style="fill: #2ca02c"/>
    </g>
    <g clip-path="url(#p9cdcd51b1b)">
     <use xlink:href="#C11_0_e48da749b6" x="513.192756" y="149.287542" style="fill: #2ca02c"/>
    </g>
    <g clip-path="url(#p9cdcd51b1b)">
     <use xlink:href="#C11_0_e48da749b6" x="513.861506" y="78.335329" style="fill: #2ca02c"/>
    </g>
   </g>
   <g id="PathCollection_40">
    <g clip-path="url(#p9cdcd51b1b)">
     <use xlink:href="#m4cf4415701" x="530.330061" y="226.746563" style="fill: #1f77b4"/>
    </g>
   </g>
   <g id="PathCollection_41">
    <defs>
     <path id="C12_0_c92c22754a" d="M 0 2.5 
C 0.663008 2.5 1.29895 2.236584 1.767767 1.767767 
C 2.236584 1.29895 2.5 0.663008 2.5 -0 
C 2.5 -0.663008 2.236584 -1.29895 1.767767 -1.767767 
C 1.29895 -2.236584 0.663008 -2.5 0 -2.5 
C -0.663008 -2.5 -1.29895 -2.236584 -1.767767 -1.767767 
C -2.236584 -1.29895 -2.5 -0.663008 -2.5 0 
C -2.5 0.663008 -2.236584 1.29895 -1.767767 1.767767 
C -1.29895 2.236584 -0.663008 2.5 0 2.5 
z
"/>
    </defs>
    <g clip-path="url(#p9cdcd51b1b)">
     <use xlink:href="#C12_0_c92c22754a" x="540.22832" y="221.858674" style="fill: #ff7f0e"/>
    </g>
    <g clip-path="url(#p9cdcd51b1b)">
     <use xlink:href="#C12_0_c92c22754a" x="541.101506" y="221.080348" style="fill: #ff7f0e"/>
    </g>
    <g clip-path="url(#p9cdcd51b1b)">
     <use xlink:href="#C12_0_c92c22754a" x="540.026422" y="223.633258" style="fill: #ff7f0e"/>
    </g>
    <g clip-path="url(#p9cdcd51b1b)">
     <use xlink:href="#C12_0_c92c22754a" x="539.332101" y="229.268339" style="fill: #ff7f0e"/>
    </g>
   </g>
   <g id="PathCollection_42">
    <defs>
     <path id="C13_0_c5d2233896" d="M 0 2.5 
C 0.663008 2.5 1.29895 2.236584 1.767767 1.767767 
C 2.236584 1.29895 2.5 0.663008 2.5 -0 
C 2.5 -0.663008 2.236584 -1.29895 1.767767 -1.767767 
C 1.29895 -2.236584 0.663008 -2.5 0 -2.5 
C -0.663008 -2.5 -1.29895 -2.236584 -1.767767 -1.767767 
C -2.236584 -1.29895 -2.5 -0.663008 -2.5 0 
C -2.5 0.663008 -2.236584 1.29895 -1.767767 1.767767 
C -1.29895 2.236584 -0.663008 2.5 0 2.5 
z
"/>
    </defs>
    <g clip-path="url(#p9cdcd51b1b)">
     <use xlink:href="#C13_0_c5d2233896" x="548.708418" y="231.385387" style="fill: #2ca02c"/>
    </g>
    <g clip-path="url(#p9cdcd51b1b)">
     <use xlink:href="#C13_0_c5d2233896" x="548.724836" y="210.495112" style="fill: #2ca02c"/>
    </g>
    <g clip-path="url(#p9cdcd51b1b)">
     <use xlink:href="#C13_0_c5d2233896" x="549.525519" y="212.456494" style="fill: #2ca02c"/>
    </g>
    <g clip-path="url(#p9cdcd51b1b)">
     <use xlink:href="#C13_0_c5d2233896" x="548.818991" y="222.450202" style="fill: #2ca02c"/>
    </g>
    <g clip-path="url(#p9cdcd51b1b)">
     <use xlink:href="#C13_0_c5d2233896" x="550.479183" y="214.417876" style="fill: #2ca02c"/>
    </g>
    <g clip-path="url(#p9cdcd51b1b)">
     <use xlink:href="#C13_0_c5d2233896" x="550.272706" y="236.211009" style="fill: #2ca02c"/>
    </g>
    <g clip-path="url(#p9cdcd51b1b)">
     <use xlink:href="#C13_0_c5d2233896" x="549.543091" y="232.692975" style="fill: #2ca02c"/>
    </g>
   </g>
   <g id="PathCollection_43">
    <g clip-path="url(#p9cdcd51b1b)">
     <use xlink:href="#m4cf4415701" x="566.474939" y="201.497662" style="fill: #1f77b4"/>
    </g>
   </g>
   <g id="PathCollection_44">
    <defs>
     <path id="C14_0_fe8e3e3ca9" d="M 0 2.5 
C 0.663008 2.5 1.29895 2.236584 1.767767 1.767767 
C 2.236584 1.29895 2.5 0.663008 2.5 -0 
C 2.5 -0.663008 2.236584 -1.29895 1.767767 -1.767767 
C 1.29895 -2.236584 0.663008 -2.5 0 -2.5 
C -0.663008 -2.5 -1.29895 -2.236584 -1.767767 -1.767767 
C -2.236584 -1.29895 -2.5 -0.663008 -2.5 0 
C -2.5 0.663008 -2.236584 1.29895 -1.767767 1.767767 
C -1.29895 2.236584 -0.663008 2.5 0 2.5 
z
"/>
    </defs>
    <g clip-path="url(#p9cdcd51b1b)">
     <use xlink:href="#C14_0_fe8e3e3ca9" x="576.317319" y="201.715593" style="fill: #ff7f0e"/>
    </g>
    <g clip-path="url(#p9cdcd51b1b)">
     <use xlink:href="#C14_0_fe8e3e3ca9" x="577.210874" y="204.6421" style="fill: #ff7f0e"/>
    </g>
    <g clip-path="url(#p9cdcd51b1b)">
     <use xlink:href="#C14_0_fe8e3e3ca9" x="576.351567" y="159.37465" style="fill: #ff7f0e"/>
    </g>
    <g clip-path="url(#p9cdcd51b1b)">
     <use xlink:href="#C14_0_fe8e3e3ca9" x="576.331027" y="211.896099" style="fill: #ff7f0e"/>
    </g>
    <g clip-path="url(#p9cdcd51b1b)">
     <use xlink:href="#C14_0_fe8e3e3ca9" x="575.101973" y="171.547671" style="fill: #ff7f0e"/>
    </g>
    <g clip-path="url(#p9cdcd51b1b)">
     <use xlink:href="#C14_0_fe8e3e3ca9" x="575.375229" y="170.053285" style="fill: #ff7f0e"/>
    </g>
    <g clip-path="url(#p9cdcd51b1b)">
     <use xlink:href="#C14_0_fe8e3e3ca9" x="576.998122" y="188.452915" style="fill: #ff7f0e"/>
    </g>
   </g>
   <g id="PathCollection_45">
    <defs>
     <path id="C15_0_9812170549" d="M 0 2.5 
C 0.663008 2.5 1.29895 2.236584 1.767767 1.767767 
C 2.236584 1.29895 2.5 0.663008 2.5 -0 
C 2.5 -0.663008 2.236584 -1.29895 1.767767 -1.767767 
C 1.29895 -2.236584 0.663008 -2.5 0 -2.5 
C -0.663008 -2.5 -1.29895 -2.236584 -1.767767 -1.767767 
C -2.236584 -1.29895 -2.5 -0.663008 -2.5 0 
C -2.5 0.663008 -2.236584 1.29895 -1.767767 1.767767 
C -1.29895 2.236584 -0.663008 2.5 0 2.5 
z
"/>
    </defs>
    <g clip-path="url(#p9cdcd51b1b)">
     <use xlink:href="#C15_0_9812170549" x="586.30007" y="171.672203" style="fill: #2ca02c"/>
    </g>
    <g clip-path="url(#p9cdcd51b1b)">
     <use xlink:href="#C15_0_9812170549" x="586.455596" y="199.474014" style="fill: #2ca02c"/>
    </g>
    <g clip-path="url(#p9cdcd51b1b)">
     <use xlink:href="#C15_0_9812170549" x="586.303478" y="186.709465" style="fill: #2ca02c"/>
    </g>
    <g clip-path="url(#p9cdcd51b1b)">
     <use xlink:href="#C15_0_9812170549" x="585.121919" y="173.976048" style="fill: #2ca02c"/>
    </g>
    <g clip-path="url(#p9cdcd51b1b)">
     <use xlink:href="#C15_0_9812170549" x="586.19143" y="197.263567" style="fill: #2ca02c"/>
    </g>
    <g clip-path="url(#p9cdcd51b1b)">
     <use xlink:href="#C15_0_9812170549" x="585.150341" y="202.992048" style="fill: #2ca02c"/>
    </g>
    <g clip-path="url(#p9cdcd51b1b)">
     <use xlink:href="#C15_0_9812170549" x="586.332415" y="196.734306" style="fill: #2ca02c"/>
    </g>
   </g>
   <g id="PathCollection_46">
    <g clip-path="url(#p9cdcd51b1b)">
     <use xlink:href="#m4cf4415701" x="602.619818" y="37.644437" style="fill: #1f77b4"/>
    </g>
   </g>
   <g id="PathCollection_47">
    <path d="M 0 386.580698 
C 0.663008 386.580698 1.29895 386.317282 1.767767 385.848465 
C 2.236584 385.379648 2.5 384.743706 2.5 384.080698 
C 2.5 383.41769 2.236584 382.781748 1.767767 382.312931 
C 1.29895 381.844114 0.663008 381.580698 0 381.580698 
C -0.663008 381.580698 -1.29895 381.844114 -1.767767 382.312931 
C -2.236584 382.781748 -2.5 383.41769 -2.5 384.080698 
C -2.5 384.743706 -2.236584 385.379648 -1.767767 385.848465 
C -1.29895 386.317282 -0.663008 386.580698 0 386.580698 
" clip-path="url(#p9cdcd51b1b)" style="fill: none"/>
   </g>
   <g id="PathCollection_48">
    <defs>
     <path id="C16_0_e9918a5c5f" d="M 0 2.5 
C 0.663008 2.5 1.29895 2.236584 1.767767 1.767767 
C 2.236584 1.29895 2.5 0.663008 2.5 -0 
C 2.5 -0.663008 2.236584 -1.29895 1.767767 -1.767767 
C 1.29895 -2.236584 0.663008 -2.5 0 -2.5 
C -0.663008 -2.5 -1.29895 -2.236584 -1.767767 -1.767767 
C -2.236584 -1.29895 -2.5 -0.663008 -2.5 0 
C -2.5 0.663008 -2.236584 1.29895 -1.767767 1.767767 
C -1.29895 2.236584 -0.663008 2.5 0 2.5 
z
"/>
    </defs>
    <g clip-path="url(#p9cdcd51b1b)">
     <use xlink:href="#C16_0_e9918a5c5f" x="621.69181" y="37.644437" style="fill: #2ca02c"/>
    </g>
    <g clip-path="url(#p9cdcd51b1b)">
     <use xlink:href="#C16_0_e9918a5c5f" x="622.743516" y="37.800102" style="fill: #2ca02c"/>
    </g>
    <g clip-path="url(#p9cdcd51b1b)">
     <use xlink:href="#C16_0_e9918a5c5f" x="621.858079" y="37.737836" style="fill: #2ca02c"/>
    </g>
    <g clip-path="url(#p9cdcd51b1b)">
     <use xlink:href="#C16_0_e9918a5c5f" x="622.33685" y="37.644437" style="fill: #2ca02c"/>
    </g>
    <g clip-path="url(#p9cdcd51b1b)">
     <use xlink:href="#C16_0_e9918a5c5f" x="622.632899" y="37.893501" style="fill: #2ca02c"/>
    </g>
    <g clip-path="url(#p9cdcd51b1b)">
     <use xlink:href="#C16_0_e9918a5c5f" x="621.712269" y="37.737836" style="fill: #2ca02c"/>
    </g>
    <g clip-path="url(#p9cdcd51b1b)">
     <use xlink:href="#C16_0_e9918a5c5f" x="622.751133" y="37.737836" style="fill: #2ca02c"/>
    </g>
   </g>
   <g id="PathCollection_49">
    <g clip-path="url(#p9cdcd51b1b)">
     <use xlink:href="#m4cf4415701" x="638.764696" y="43.590849" style="fill: #1f77b4"/>
    </g>
   </g>
   <g id="PathCollection_50">
    <defs>
     <path id="C17_0_b1f37b6b44" d="M 0 2.5 
C 0.663008 2.5 1.29895 2.236584 1.767767 1.767767 
C 2.236584 1.29895 2.5 0.663008 2.5 -0 
C 2.5 -0.663008 2.236584 -1.29895 1.767767 -1.767767 
C 1.29895 -2.236584 0.663008 -2.5 0 -2.5 
C -0.663008 -2.5 -1.29895 -2.236584 -1.767767 -1.767767 
C -2.236584 -1.29895 -2.5 -0.663008 -2.5 0 
C -2.5 0.663008 -2.236584 1.29895 -1.767767 1.767767 
C -1.29895 2.236584 -0.663008 2.5 0 2.5 
z
"/>
    </defs>
    <g clip-path="url(#p9cdcd51b1b)">
     <use xlink:href="#C17_0_b1f37b6b44" x="649.282221" y="44.400308" style="fill: #ff7f0e"/>
    </g>
    <g clip-path="url(#p9cdcd51b1b)">
     <use xlink:href="#C17_0_b1f37b6b44" x="648.11694" y="44.431441" style="fill: #ff7f0e"/>
    </g>
    <g clip-path="url(#p9cdcd51b1b)">
     <use xlink:href="#C17_0_b1f37b6b44" x="649.594978" y="44.431441" style="fill: #ff7f0e"/>
    </g>
    <g clip-path="url(#p9cdcd51b1b)">
     <use xlink:href="#C17_0_b1f37b6b44" x="648.162833" y="44.431441" style="fill: #ff7f0e"/>
    </g>
    <g clip-path="url(#p9cdcd51b1b)">
     <use xlink:href="#C17_0_b1f37b6b44" x="647.629287" y="44.431441" style="fill: #ff7f0e"/>
    </g>
    <g clip-path="url(#p9cdcd51b1b)">
     <use xlink:href="#C17_0_b1f37b6b44" x="647.407428" y="44.462574" style="fill: #ff7f0e"/>
    </g>
    <g clip-path="url(#p9cdcd51b1b)">
     <use xlink:href="#C17_0_b1f37b6b44" x="647.955218" y="44.462574" style="fill: #ff7f0e"/>
    </g>
   </g>
   <g id="PathCollection_51">
    <path d="M 0 386.580698 
C 0.663008 386.580698 1.29895 386.317282 1.767767 385.848465 
C 2.236584 385.379648 2.5 384.743706 2.5 384.080698 
C 2.5 383.41769 2.236584 382.781748 1.767767 382.312931 
C 1.29895 381.844114 0.663008 381.580698 0 381.580698 
C -0.663008 381.580698 -1.29895 381.844114 -1.767767 382.312931 
C -2.236584 382.781748 -2.5 383.41769 -2.5 384.080698 
C -2.5 384.743706 -2.236584 385.379648 -1.767767 385.848465 
C -1.29895 386.317282 -0.663008 386.580698 0 386.580698 
" clip-path="url(#p9cdcd51b1b)" style="fill: none"/>
   </g>
   <g id="PathCollection_52">
    <g clip-path="url(#p9cdcd51b1b)">
     <use xlink:href="#m4cf4415701" x="674.909574" y="274.037661" style="fill: #1f77b4"/>
    </g>
   </g>
   <g id="PathCollection_53">
    <defs>
     <path id="C18_0_922215bfac" d="M 0 2.5 
C 0.663008 2.5 1.29895 2.236584 1.767767 1.767767 
C 2.236584 1.29895 2.5 0.663008 2.5 -0 
C 2.5 -0.663008 2.236584 -1.29895 1.767767 -1.767767 
C 1.29895 -2.236584 0.663008 -2.5 0 -2.5 
C -0.663008 -2.5 -1.29895 -2.236584 -1.767767 -1.767767 
C -2.236584 -1.29895 -2.5 -0.663008 -2.5 0 
C -2.5 0.663008 -2.236584 1.29895 -1.767767 1.767767 
C -1.29895 2.236584 -0.663008 2.5 0 2.5 
z
"/>
    </defs>
    <g clip-path="url(#p9cdcd51b1b)">
     <use xlink:href="#C18_0_922215bfac" x="684.132693" y="275.656579" style="fill: #ff7f0e"/>
    </g>
    <g clip-path="url(#p9cdcd51b1b)">
     <use xlink:href="#C18_0_922215bfac" x="683.406369" y="275.314116" style="fill: #ff7f0e"/>
    </g>
    <g clip-path="url(#p9cdcd51b1b)">
     <use xlink:href="#C18_0_922215bfac" x="685.102127" y="274.971652" style="fill: #ff7f0e"/>
    </g>
    <g clip-path="url(#p9cdcd51b1b)">
     <use xlink:href="#C18_0_922215bfac" x="685.492698" y="275.532047" style="fill: #ff7f0e"/>
    </g>
    <g clip-path="url(#p9cdcd51b1b)">
     <use xlink:href="#C18_0_922215bfac" x="684.193192" y="275.438648" style="fill: #ff7f0e"/>
    </g>
    <g clip-path="url(#p9cdcd51b1b)">
     <use xlink:href="#C18_0_922215bfac" x="684.919726" y="275.532047" style="fill: #ff7f0e"/>
    </g>
    <g clip-path="url(#p9cdcd51b1b)">
     <use xlink:href="#C18_0_922215bfac" x="683.821964" y="274.566923" style="fill: #ff7f0e"/>
    </g>
   </g>
   <g id="PathCollection_54">
    <defs>
     <path id="C19_0_5d86325dcc" d="M 0 2.5 
C 0.663008 2.5 1.29895 2.236584 1.767767 1.767767 
C 2.236584 1.29895 2.5 0.663008 2.5 -0 
C 2.5 -0.663008 2.236584 -1.29895 1.767767 -1.767767 
C 1.29895 -2.236584 0.663008 -2.5 0 -2.5 
C -0.663008 -2.5 -1.29895 -2.236584 -1.767767 -1.767767 
C -2.236584 -1.29895 -2.5 -0.663008 -2.5 0 
C -2.5 0.663008 -2.236584 1.29895 -1.767767 1.767767 
C -1.29895 2.236584 -0.663008 2.5 0 2.5 
z
"/>
    </defs>
    <g clip-path="url(#p9cdcd51b1b)">
     <use xlink:href="#C19_0_5d86325dcc" x="693.76792" y="291.845763" style="fill: #2ca02c"/>
    </g>
    <g clip-path="url(#p9cdcd51b1b)">
     <use xlink:href="#C19_0_5d86325dcc" x="693.0417" y="277.804759" style="fill: #2ca02c"/>
    </g>
    <g clip-path="url(#p9cdcd51b1b)">
     <use xlink:href="#C19_0_5d86325dcc" x="694.627596" y="291.845763" style="fill: #2ca02c"/>
    </g>
    <g clip-path="url(#p9cdcd51b1b)">
     <use xlink:href="#C19_0_5d86325dcc" x="694.909792" y="287.798467" style="fill: #2ca02c"/>
    </g>
    <g clip-path="url(#p9cdcd51b1b)">
     <use xlink:href="#C19_0_5d86325dcc" x="695.187964" y="291.658965" style="fill: #2ca02c"/>
    </g>
    <g clip-path="url(#p9cdcd51b1b)">
     <use xlink:href="#C19_0_5d86325dcc" x="694.714397" y="291.845763" style="fill: #2ca02c"/>
    </g>
    <g clip-path="url(#p9cdcd51b1b)">
     <use xlink:href="#C19_0_5d86325dcc" x="693.968698" y="291.845763" style="fill: #2ca02c"/>
    </g>
   </g>
   <g id="line2d_17"/>
   <g id="line2d_18"/>
   <g id="line2d_19"/>
   <g id="text_28">
    <!-- architecture = GPT -->
    <g style="fill: #262626" transform="translate(497.871039 14.357812) scale(0.1 -0.1)">
     <defs>
      <path id="ArialMT-47" d="M 2638 1797 
L 2638 2334 
L 4578 2338 
L 4578 638 
Q 4131 281 3656 101 
Q 3181 -78 2681 -78 
Q 2006 -78 1454 211 
Q 903 500 622 1047 
Q 341 1594 341 2269 
Q 341 2938 620 3517 
Q 900 4097 1425 4378 
Q 1950 4659 2634 4659 
Q 3131 4659 3532 4498 
Q 3934 4338 4162 4050 
Q 4391 3763 4509 3300 
L 3963 3150 
Q 3859 3500 3706 3700 
Q 3553 3900 3268 4020 
Q 2984 4141 2638 4141 
Q 2222 4141 1919 4014 
Q 1616 3888 1430 3681 
Q 1244 3475 1141 3228 
Q 966 2803 966 2306 
Q 966 1694 1177 1281 
Q 1388 869 1791 669 
Q 2194 469 2647 469 
Q 3041 469 3416 620 
Q 3791 772 3984 944 
L 3984 1797 
L 2638 1797 
z
" transform="scale(0.015625)"/>
     </defs>
     <use xlink:href="#ArialMT-61"/>
     <use xlink:href="#ArialMT-72" x="55.615234"/>
     <use xlink:href="#ArialMT-63" x="88.916016"/>
     <use xlink:href="#ArialMT-68" x="138.916016"/>
     <use xlink:href="#ArialMT-69" x="194.53125"/>
     <use xlink:href="#ArialMT-74" x="216.748047"/>
     <use xlink:href="#ArialMT-65" x="244.53125"/>
     <use xlink:href="#ArialMT-63" x="300.146484"/>
     <use xlink:href="#ArialMT-74" x="350.146484"/>
     <use xlink:href="#ArialMT-75" x="377.929688"/>
     <use xlink:href="#ArialMT-72" x="433.544922"/>
     <use xlink:href="#ArialMT-65" x="466.845703"/>
     <use xlink:href="#ArialMT-20" x="522.460938"/>
     <use xlink:href="#ArialMT-3d" x="550.244141"/>
     <use xlink:href="#ArialMT-20" x="608.642578"/>
     <use xlink:href="#ArialMT-47" x="636.425781"/>
     <use xlink:href="#ArialMT-50" x="714.208984"/>
     <use xlink:href="#ArialMT-54" x="780.908203"/>
    </g>
   </g>
  </g>
  <g id="legend_1">
   <g id="text_29">
    <!-- setting -->
    <g style="fill: #262626" transform="translate(730.996497 173.348943) scale(0.1 -0.1)">
     <use xlink:href="#ArialMT-73"/>
     <use xlink:href="#ArialMT-65" x="50"/>
     <use xlink:href="#ArialMT-74" x="105.615234"/>
     <use xlink:href="#ArialMT-74" x="133.398438"/>
     <use xlink:href="#ArialMT-69" x="161.181641"/>
     <use xlink:href="#ArialMT-6e" x="183.398438"/>
     <use xlink:href="#ArialMT-67" x="239.013672"/>
    </g>
   </g>
   <g id="line2d_20">
    <g>
     <use xlink:href="#m4cf4415701" x="721.713685" y="184.111443" style="fill: #1f77b4"/>
    </g>
   </g>
   <g id="text_30">
    <!-- base -->
    <g style="fill: #262626" transform="translate(739.713685 187.611443) scale(0.1 -0.1)">
     <defs>
      <path id="ArialMT-62" d="M 941 0 
L 419 0 
L 419 4581 
L 981 4581 
L 981 2947 
Q 1338 3394 1891 3394 
Q 2197 3394 2470 3270 
Q 2744 3147 2920 2923 
Q 3097 2700 3197 2384 
Q 3297 2069 3297 1709 
Q 3297 856 2875 390 
Q 2453 -75 1863 -75 
Q 1275 -75 941 416 
L 941 0 
z
M 934 1684 
Q 934 1088 1097 822 
Q 1363 388 1816 388 
Q 2184 388 2453 708 
Q 2722 1028 2722 1663 
Q 2722 2313 2464 2622 
Q 2206 2931 1841 2931 
Q 1472 2931 1203 2611 
Q 934 2291 934 1684 
z
" transform="scale(0.015625)"/>
     </defs>
     <use xlink:href="#ArialMT-62"/>
     <use xlink:href="#ArialMT-61" x="55.615234"/>
     <use xlink:href="#ArialMT-73" x="111.230469"/>
     <use xlink:href="#ArialMT-65" x="161.230469"/>
    </g>
   </g>
   <g id="line2d_21">
    <defs>
     <path id="m62141cb175" d="M 0 2.5 
C 0.663008 2.5 1.29895 2.236584 1.767767 1.767767 
C 2.236584 1.29895 2.5 0.663008 2.5 0 
C 2.5 -0.663008 2.236584 -1.29895 1.767767 -1.767767 
C 1.29895 -2.236584 0.663008 -2.5 0 -2.5 
C -0.663008 -2.5 -1.29895 -2.236584 -1.767767 -1.767767 
C -2.236584 -1.29895 -2.5 -0.663008 -2.5 0 
C -2.5 0.663008 -2.236584 1.29895 -1.767767 1.767767 
C -1.29895 2.236584 -0.663008 2.5 0 2.5 
z
"/>
    </defs>
    <g>
     <use xlink:href="#m62141cb175" x="721.713685" y="198.256755" style="fill: #ff7f0e"/>
    </g>
   </g>
   <g id="text_31">
    <!-- helpdesk -->
    <g style="fill: #262626" transform="translate(739.713685 201.756755) scale(0.1 -0.1)">
     <use xlink:href="#ArialMT-68"/>
     <use xlink:href="#ArialMT-65" x="55.615234"/>
     <use xlink:href="#ArialMT-6c" x="111.230469"/>
     <use xlink:href="#ArialMT-70" x="133.447266"/>
     <use xlink:href="#ArialMT-64" x="189.0625"/>
     <use xlink:href="#ArialMT-65" x="244.677734"/>
     <use xlink:href="#ArialMT-73" x="300.292969"/>
     <use xlink:href="#ArialMT-6b" x="350.292969"/>
    </g>
   </g>
   <g id="line2d_22">
    <defs>
     <path id="mf0dece5419" d="M 0 2.5 
C 0.663008 2.5 1.29895 2.236584 1.767767 1.767767 
C 2.236584 1.29895 2.5 0.663008 2.5 0 
C 2.5 -0.663008 2.236584 -1.29895 1.767767 -1.767767 
C 1.29895 -2.236584 0.663008 -2.5 0 -2.5 
C -0.663008 -2.5 -1.29895 -2.236584 -1.767767 -1.767767 
C -2.236584 -1.29895 -2.5 -0.663008 -2.5 0 
C -2.5 0.663008 -2.236584 1.29895 -1.767767 1.767767 
C -1.29895 2.236584 -0.663008 2.5 0 2.5 
z
"/>
    </defs>
    <g>
     <use xlink:href="#mf0dece5419" x="721.713685" y="212.402068" style="fill: #2ca02c"/>
    </g>
   </g>
   <g id="text_32">
    <!-- RTFMP -->
    <g style="fill: #262626" transform="translate(739.713685 215.902068) scale(0.1 -0.1)">
     <use xlink:href="#ArialMT-52"/>
     <use xlink:href="#ArialMT-54" x="70.466797"/>
     <use xlink:href="#ArialMT-46" x="131.550781"/>
     <use xlink:href="#ArialMT-4d" x="192.634766"/>
     <use xlink:href="#ArialMT-50" x="275.935547"/>
    </g>
   </g>
  </g>
 </g>
 <defs>
  <clipPath id="peee1ac8132">
   <rect x="41.245313" y="20.357812" width="325.303905" height="293.32"/>
  </clipPath>
  <clipPath id="p9cdcd51b1b">
   <rect x="377.316743" y="20.357812" width="325.303905" height="293.32"/>
  </clipPath>
 </defs>
</svg>
